<mxfile host="app.diagrams.net" modified="2024-02-17T10:52:52.774Z" agent="Mozilla/5.0 (Windows NT 10.0; Win64; x64) AppleWebKit/537.36 (KHTML, like Gecko) Chrome/121.0.0.0 Safari/537.36" etag="MPbphPoJr2LssVwoi2CD" version="23.1.5" type="device">
  <diagram name="Page-1" id="6LUg_ZwH2NXOKJRWPXSx">
    <mxGraphModel dx="1867" dy="710" grid="1" gridSize="10" guides="1" tooltips="1" connect="1" arrows="1" fold="1" page="1" pageScale="1" pageWidth="850" pageHeight="1100" background="none" math="0" shadow="0">
      <root>
        <mxCell id="0" />
        <mxCell id="1" parent="0" />
        <mxCell id="VUji3Fqrfajs4CVE4JuU-1" value="User" style="shape=table;startSize=30;container=1;collapsible=1;childLayout=tableLayout;fixedRows=1;rowLines=0;fontStyle=1;align=center;resizeLast=1;html=1;rounded=1;labelBackgroundColor=none;fillColor=#B2C9AB;strokeColor=#788AA3;fontColor=#46495D;" parent="1" vertex="1">
          <mxGeometry x="870" y="37" width="310" height="510" as="geometry" />
        </mxCell>
        <mxCell id="VUji3Fqrfajs4CVE4JuU-2" value="" style="shape=tableRow;horizontal=0;startSize=0;swimlaneHead=0;swimlaneBody=0;fillColor=none;collapsible=0;dropTarget=0;points=[[0,0.5],[1,0.5]];portConstraint=eastwest;top=0;left=0;right=0;bottom=1;rounded=1;labelBackgroundColor=none;strokeColor=#788AA3;fontColor=#46495D;" parent="VUji3Fqrfajs4CVE4JuU-1" vertex="1">
          <mxGeometry y="30" width="310" height="30" as="geometry" />
        </mxCell>
        <mxCell id="VUji3Fqrfajs4CVE4JuU-3" value="PK" style="shape=partialRectangle;connectable=0;fillColor=none;top=0;left=0;bottom=0;right=0;fontStyle=1;overflow=hidden;whiteSpace=wrap;html=1;rounded=1;labelBackgroundColor=none;strokeColor=#788AA3;fontColor=#46495D;" parent="VUji3Fqrfajs4CVE4JuU-2" vertex="1">
          <mxGeometry width="30" height="30" as="geometry">
            <mxRectangle width="30" height="30" as="alternateBounds" />
          </mxGeometry>
        </mxCell>
        <mxCell id="VUji3Fqrfajs4CVE4JuU-4" value="user_id: bigInt(20)" style="shape=partialRectangle;connectable=0;fillColor=none;top=0;left=0;bottom=0;right=0;align=left;spacingLeft=6;fontStyle=5;overflow=hidden;whiteSpace=wrap;html=1;rounded=1;labelBackgroundColor=none;strokeColor=#788AA3;fontColor=#46495D;" parent="VUji3Fqrfajs4CVE4JuU-2" vertex="1">
          <mxGeometry x="30" width="280" height="30" as="geometry">
            <mxRectangle width="280" height="30" as="alternateBounds" />
          </mxGeometry>
        </mxCell>
        <mxCell id="u-ZRgJGEgGVV-CXIHLiP-1" value="" style="shape=tableRow;horizontal=0;startSize=0;swimlaneHead=0;swimlaneBody=0;fillColor=none;collapsible=0;dropTarget=0;points=[[0,0.5],[1,0.5]];portConstraint=eastwest;top=0;left=0;right=0;bottom=0;rounded=1;labelBackgroundColor=none;strokeColor=#788AA3;fontColor=#46495D;" parent="VUji3Fqrfajs4CVE4JuU-1" vertex="1">
          <mxGeometry y="60" width="310" height="30" as="geometry" />
        </mxCell>
        <mxCell id="u-ZRgJGEgGVV-CXIHLiP-2" value="" style="shape=partialRectangle;connectable=0;fillColor=none;top=0;left=0;bottom=0;right=0;editable=1;overflow=hidden;whiteSpace=wrap;html=1;rounded=1;labelBackgroundColor=none;strokeColor=#788AA3;fontColor=#46495D;" parent="u-ZRgJGEgGVV-CXIHLiP-1" vertex="1">
          <mxGeometry width="30" height="30" as="geometry">
            <mxRectangle width="30" height="30" as="alternateBounds" />
          </mxGeometry>
        </mxCell>
        <mxCell id="u-ZRgJGEgGVV-CXIHLiP-3" value="name:&amp;nbsp;&lt;b&gt;varchar(85)&lt;/b&gt;" style="shape=partialRectangle;connectable=0;fillColor=none;top=0;left=0;bottom=0;right=0;align=left;spacingLeft=6;overflow=hidden;whiteSpace=wrap;html=1;rounded=1;labelBackgroundColor=none;strokeColor=#788AA3;fontColor=#46495D;" parent="u-ZRgJGEgGVV-CXIHLiP-1" vertex="1">
          <mxGeometry x="30" width="280" height="30" as="geometry">
            <mxRectangle width="280" height="30" as="alternateBounds" />
          </mxGeometry>
        </mxCell>
        <mxCell id="VUji3Fqrfajs4CVE4JuU-5" value="" style="shape=tableRow;horizontal=0;startSize=0;swimlaneHead=0;swimlaneBody=0;fillColor=none;collapsible=0;dropTarget=0;points=[[0,0.5],[1,0.5]];portConstraint=eastwest;top=0;left=0;right=0;bottom=0;rounded=1;labelBackgroundColor=none;strokeColor=#788AA3;fontColor=#46495D;" parent="VUji3Fqrfajs4CVE4JuU-1" vertex="1">
          <mxGeometry y="90" width="310" height="30" as="geometry" />
        </mxCell>
        <mxCell id="VUji3Fqrfajs4CVE4JuU-6" value="" style="shape=partialRectangle;connectable=0;fillColor=none;top=0;left=0;bottom=0;right=0;editable=1;overflow=hidden;whiteSpace=wrap;html=1;rounded=1;labelBackgroundColor=none;strokeColor=#788AA3;fontColor=#46495D;" parent="VUji3Fqrfajs4CVE4JuU-5" vertex="1">
          <mxGeometry width="30" height="30" as="geometry">
            <mxRectangle width="30" height="30" as="alternateBounds" />
          </mxGeometry>
        </mxCell>
        <mxCell id="VUji3Fqrfajs4CVE4JuU-7" value="username:&amp;nbsp;&lt;b&gt;varchar(50)&lt;/b&gt;" style="shape=partialRectangle;connectable=0;fillColor=none;top=0;left=0;bottom=0;right=0;align=left;spacingLeft=6;overflow=hidden;whiteSpace=wrap;html=1;rounded=1;labelBackgroundColor=none;strokeColor=#788AA3;fontColor=#46495D;" parent="VUji3Fqrfajs4CVE4JuU-5" vertex="1">
          <mxGeometry x="30" width="280" height="30" as="geometry">
            <mxRectangle width="280" height="30" as="alternateBounds" />
          </mxGeometry>
        </mxCell>
        <mxCell id="VUji3Fqrfajs4CVE4JuU-8" value="" style="shape=tableRow;horizontal=0;startSize=0;swimlaneHead=0;swimlaneBody=0;fillColor=none;collapsible=0;dropTarget=0;points=[[0,0.5],[1,0.5]];portConstraint=eastwest;top=0;left=0;right=0;bottom=0;rounded=1;labelBackgroundColor=none;strokeColor=#788AA3;fontColor=#46495D;" parent="VUji3Fqrfajs4CVE4JuU-1" vertex="1">
          <mxGeometry y="120" width="310" height="30" as="geometry" />
        </mxCell>
        <mxCell id="VUji3Fqrfajs4CVE4JuU-9" value="" style="shape=partialRectangle;connectable=0;fillColor=none;top=0;left=0;bottom=0;right=0;editable=1;overflow=hidden;whiteSpace=wrap;html=1;rounded=1;labelBackgroundColor=none;strokeColor=#788AA3;fontColor=#46495D;" parent="VUji3Fqrfajs4CVE4JuU-8" vertex="1">
          <mxGeometry width="30" height="30" as="geometry">
            <mxRectangle width="30" height="30" as="alternateBounds" />
          </mxGeometry>
        </mxCell>
        <mxCell id="VUji3Fqrfajs4CVE4JuU-10" value="email:&amp;nbsp;&lt;b&gt;varchar(255)&lt;/b&gt;" style="shape=partialRectangle;connectable=0;fillColor=none;top=0;left=0;bottom=0;right=0;align=left;spacingLeft=6;overflow=hidden;whiteSpace=wrap;html=1;rounded=1;labelBackgroundColor=none;strokeColor=#788AA3;fontColor=#46495D;" parent="VUji3Fqrfajs4CVE4JuU-8" vertex="1">
          <mxGeometry x="30" width="280" height="30" as="geometry">
            <mxRectangle width="280" height="30" as="alternateBounds" />
          </mxGeometry>
        </mxCell>
        <mxCell id="u-ZRgJGEgGVV-CXIHLiP-7" value="" style="shape=tableRow;horizontal=0;startSize=0;swimlaneHead=0;swimlaneBody=0;fillColor=none;collapsible=0;dropTarget=0;points=[[0,0.5],[1,0.5]];portConstraint=eastwest;top=0;left=0;right=0;bottom=0;rounded=1;labelBackgroundColor=none;strokeColor=#788AA3;fontColor=#46495D;" parent="VUji3Fqrfajs4CVE4JuU-1" vertex="1">
          <mxGeometry y="150" width="310" height="30" as="geometry" />
        </mxCell>
        <mxCell id="u-ZRgJGEgGVV-CXIHLiP-8" value="" style="shape=partialRectangle;connectable=0;fillColor=none;top=0;left=0;bottom=0;right=0;editable=1;overflow=hidden;whiteSpace=wrap;html=1;rounded=1;labelBackgroundColor=none;strokeColor=#788AA3;fontColor=#46495D;" parent="u-ZRgJGEgGVV-CXIHLiP-7" vertex="1">
          <mxGeometry width="30" height="30" as="geometry">
            <mxRectangle width="30" height="30" as="alternateBounds" />
          </mxGeometry>
        </mxCell>
        <mxCell id="u-ZRgJGEgGVV-CXIHLiP-9" value="role:&amp;nbsp;&lt;b&gt;enum(&#39;admin&#39;, &#39;petugas&#39;, &#39;peminjam&#39;)&lt;/b&gt;" style="shape=partialRectangle;connectable=0;fillColor=none;top=0;left=0;bottom=0;right=0;align=left;spacingLeft=6;overflow=hidden;whiteSpace=wrap;html=1;rounded=1;labelBackgroundColor=none;strokeColor=#788AA3;fontColor=#46495D;" parent="u-ZRgJGEgGVV-CXIHLiP-7" vertex="1">
          <mxGeometry x="30" width="280" height="30" as="geometry">
            <mxRectangle width="280" height="30" as="alternateBounds" />
          </mxGeometry>
        </mxCell>
        <mxCell id="VUji3Fqrfajs4CVE4JuU-139" value="" style="shape=tableRow;horizontal=0;startSize=0;swimlaneHead=0;swimlaneBody=0;fillColor=none;collapsible=0;dropTarget=0;points=[[0,0.5],[1,0.5]];portConstraint=eastwest;top=0;left=0;right=0;bottom=0;rounded=1;labelBackgroundColor=none;strokeColor=#788AA3;fontColor=#46495D;" parent="VUji3Fqrfajs4CVE4JuU-1" vertex="1">
          <mxGeometry y="180" width="310" height="30" as="geometry" />
        </mxCell>
        <mxCell id="VUji3Fqrfajs4CVE4JuU-140" value="" style="shape=partialRectangle;connectable=0;fillColor=none;top=0;left=0;bottom=0;right=0;editable=1;overflow=hidden;whiteSpace=wrap;html=1;rounded=1;labelBackgroundColor=none;strokeColor=#788AA3;fontColor=#46495D;" parent="VUji3Fqrfajs4CVE4JuU-139" vertex="1">
          <mxGeometry width="30" height="30" as="geometry">
            <mxRectangle width="30" height="30" as="alternateBounds" />
          </mxGeometry>
        </mxCell>
        <mxCell id="VUji3Fqrfajs4CVE4JuU-141" value="no_telepon:&amp;nbsp;&lt;b&gt;varchar(13)&lt;/b&gt;" style="shape=partialRectangle;connectable=0;fillColor=none;top=0;left=0;bottom=0;right=0;align=left;spacingLeft=6;overflow=hidden;whiteSpace=wrap;html=1;rounded=1;labelBackgroundColor=none;strokeColor=#788AA3;fontColor=#46495D;" parent="VUji3Fqrfajs4CVE4JuU-139" vertex="1">
          <mxGeometry x="30" width="280" height="30" as="geometry">
            <mxRectangle width="280" height="30" as="alternateBounds" />
          </mxGeometry>
        </mxCell>
        <mxCell id="u-ZRgJGEgGVV-CXIHLiP-25" value="" style="shape=tableRow;horizontal=0;startSize=0;swimlaneHead=0;swimlaneBody=0;fillColor=none;collapsible=0;dropTarget=0;points=[[0,0.5],[1,0.5]];portConstraint=eastwest;top=0;left=0;right=0;bottom=0;rounded=1;labelBackgroundColor=none;strokeColor=#788AA3;fontColor=#46495D;" parent="VUji3Fqrfajs4CVE4JuU-1" vertex="1">
          <mxGeometry y="210" width="310" height="30" as="geometry" />
        </mxCell>
        <mxCell id="u-ZRgJGEgGVV-CXIHLiP-26" value="" style="shape=partialRectangle;connectable=0;fillColor=none;top=0;left=0;bottom=0;right=0;editable=1;overflow=hidden;whiteSpace=wrap;html=1;rounded=1;labelBackgroundColor=none;strokeColor=#788AA3;fontColor=#46495D;" parent="u-ZRgJGEgGVV-CXIHLiP-25" vertex="1">
          <mxGeometry width="30" height="30" as="geometry">
            <mxRectangle width="30" height="30" as="alternateBounds" />
          </mxGeometry>
        </mxCell>
        <mxCell id="u-ZRgJGEgGVV-CXIHLiP-27" value="tanggal_lahir: &lt;b&gt;date&lt;/b&gt;" style="shape=partialRectangle;connectable=0;fillColor=none;top=0;left=0;bottom=0;right=0;align=left;spacingLeft=6;overflow=hidden;whiteSpace=wrap;html=1;rounded=1;labelBackgroundColor=none;strokeColor=#788AA3;fontColor=#46495D;" parent="u-ZRgJGEgGVV-CXIHLiP-25" vertex="1">
          <mxGeometry x="30" width="280" height="30" as="geometry">
            <mxRectangle width="280" height="30" as="alternateBounds" />
          </mxGeometry>
        </mxCell>
        <mxCell id="u-ZRgJGEgGVV-CXIHLiP-16" value="" style="shape=tableRow;horizontal=0;startSize=0;swimlaneHead=0;swimlaneBody=0;fillColor=none;collapsible=0;dropTarget=0;points=[[0,0.5],[1,0.5]];portConstraint=eastwest;top=0;left=0;right=0;bottom=0;rounded=1;labelBackgroundColor=none;strokeColor=#788AA3;fontColor=#46495D;" parent="VUji3Fqrfajs4CVE4JuU-1" vertex="1">
          <mxGeometry y="240" width="310" height="30" as="geometry" />
        </mxCell>
        <mxCell id="u-ZRgJGEgGVV-CXIHLiP-17" value="" style="shape=partialRectangle;connectable=0;fillColor=none;top=0;left=0;bottom=0;right=0;editable=1;overflow=hidden;whiteSpace=wrap;html=1;rounded=1;labelBackgroundColor=none;strokeColor=#788AA3;fontColor=#46495D;" parent="u-ZRgJGEgGVV-CXIHLiP-16" vertex="1">
          <mxGeometry width="30" height="30" as="geometry">
            <mxRectangle width="30" height="30" as="alternateBounds" />
          </mxGeometry>
        </mxCell>
        <mxCell id="u-ZRgJGEgGVV-CXIHLiP-18" value="jk:&amp;nbsp;&lt;b&gt;enum(&#39;L&#39;, &#39;P&#39;)&lt;/b&gt;" style="shape=partialRectangle;connectable=0;fillColor=none;top=0;left=0;bottom=0;right=0;align=left;spacingLeft=6;overflow=hidden;whiteSpace=wrap;html=1;rounded=1;labelBackgroundColor=none;strokeColor=#788AA3;fontColor=#46495D;" parent="u-ZRgJGEgGVV-CXIHLiP-16" vertex="1">
          <mxGeometry x="30" width="280" height="30" as="geometry">
            <mxRectangle width="280" height="30" as="alternateBounds" />
          </mxGeometry>
        </mxCell>
        <mxCell id="u-ZRgJGEgGVV-CXIHLiP-4" value="" style="shape=tableRow;horizontal=0;startSize=0;swimlaneHead=0;swimlaneBody=0;fillColor=none;collapsible=0;dropTarget=0;points=[[0,0.5],[1,0.5]];portConstraint=eastwest;top=0;left=0;right=0;bottom=0;rounded=1;labelBackgroundColor=none;strokeColor=#788AA3;fontColor=#46495D;" parent="VUji3Fqrfajs4CVE4JuU-1" vertex="1">
          <mxGeometry y="270" width="310" height="30" as="geometry" />
        </mxCell>
        <mxCell id="u-ZRgJGEgGVV-CXIHLiP-5" value="" style="shape=partialRectangle;connectable=0;fillColor=none;top=0;left=0;bottom=0;right=0;editable=1;overflow=hidden;whiteSpace=wrap;html=1;rounded=1;labelBackgroundColor=none;strokeColor=#788AA3;fontColor=#46495D;" parent="u-ZRgJGEgGVV-CXIHLiP-4" vertex="1">
          <mxGeometry width="30" height="30" as="geometry">
            <mxRectangle width="30" height="30" as="alternateBounds" />
          </mxGeometry>
        </mxCell>
        <mxCell id="u-ZRgJGEgGVV-CXIHLiP-6" value="alamat:&amp;nbsp;&lt;b&gt;text&lt;/b&gt;" style="shape=partialRectangle;connectable=0;fillColor=none;top=0;left=0;bottom=0;right=0;align=left;spacingLeft=6;overflow=hidden;whiteSpace=wrap;html=1;rounded=1;labelBackgroundColor=none;strokeColor=#788AA3;fontColor=#46495D;" parent="u-ZRgJGEgGVV-CXIHLiP-4" vertex="1">
          <mxGeometry x="30" width="280" height="30" as="geometry">
            <mxRectangle width="280" height="30" as="alternateBounds" />
          </mxGeometry>
        </mxCell>
        <mxCell id="jsvnlrjWWTkFHVT1R_TK-1" value="" style="shape=tableRow;horizontal=0;startSize=0;swimlaneHead=0;swimlaneBody=0;fillColor=none;collapsible=0;dropTarget=0;points=[[0,0.5],[1,0.5]];portConstraint=eastwest;top=0;left=0;right=0;bottom=0;rounded=1;labelBackgroundColor=none;strokeColor=#788AA3;fontColor=#46495D;" parent="VUji3Fqrfajs4CVE4JuU-1" vertex="1">
          <mxGeometry y="300" width="310" height="30" as="geometry" />
        </mxCell>
        <mxCell id="jsvnlrjWWTkFHVT1R_TK-2" value="" style="shape=partialRectangle;connectable=0;fillColor=none;top=0;left=0;bottom=0;right=0;editable=1;overflow=hidden;whiteSpace=wrap;html=1;rounded=1;labelBackgroundColor=none;strokeColor=#788AA3;fontColor=#46495D;" parent="jsvnlrjWWTkFHVT1R_TK-1" vertex="1">
          <mxGeometry width="30" height="30" as="geometry">
            <mxRectangle width="30" height="30" as="alternateBounds" />
          </mxGeometry>
        </mxCell>
        <mxCell id="jsvnlrjWWTkFHVT1R_TK-3" value="slug : &lt;b&gt;varchar(255)&lt;/b&gt;" style="shape=partialRectangle;connectable=0;fillColor=none;top=0;left=0;bottom=0;right=0;align=left;spacingLeft=6;overflow=hidden;whiteSpace=wrap;html=1;rounded=1;labelBackgroundColor=none;strokeColor=#788AA3;fontColor=#46495D;" parent="jsvnlrjWWTkFHVT1R_TK-1" vertex="1">
          <mxGeometry x="30" width="280" height="30" as="geometry">
            <mxRectangle width="280" height="30" as="alternateBounds" />
          </mxGeometry>
        </mxCell>
        <mxCell id="8P4Izcxl7sAH3ZRfBzEM-37" value="" style="shape=tableRow;horizontal=0;startSize=0;swimlaneHead=0;swimlaneBody=0;fillColor=none;collapsible=0;dropTarget=0;points=[[0,0.5],[1,0.5]];portConstraint=eastwest;top=0;left=0;right=0;bottom=0;rounded=1;labelBackgroundColor=none;strokeColor=#788AA3;fontColor=#46495D;" parent="VUji3Fqrfajs4CVE4JuU-1" vertex="1">
          <mxGeometry y="330" width="310" height="30" as="geometry" />
        </mxCell>
        <mxCell id="8P4Izcxl7sAH3ZRfBzEM-38" value="" style="shape=partialRectangle;connectable=0;fillColor=none;top=0;left=0;bottom=0;right=0;editable=1;overflow=hidden;whiteSpace=wrap;html=1;rounded=1;labelBackgroundColor=none;strokeColor=#788AA3;fontColor=#46495D;" parent="8P4Izcxl7sAH3ZRfBzEM-37" vertex="1">
          <mxGeometry width="30" height="30" as="geometry">
            <mxRectangle width="30" height="30" as="alternateBounds" />
          </mxGeometry>
        </mxCell>
        <mxCell id="8P4Izcxl7sAH3ZRfBzEM-39" value="status_aktif: &lt;b&gt;enum(&#39;Y&#39;,&#39;N&#39;)&lt;/b&gt;" style="shape=partialRectangle;connectable=0;fillColor=none;top=0;left=0;bottom=0;right=0;align=left;spacingLeft=6;overflow=hidden;whiteSpace=wrap;html=1;rounded=1;labelBackgroundColor=none;strokeColor=#788AA3;fontColor=#46495D;" parent="8P4Izcxl7sAH3ZRfBzEM-37" vertex="1">
          <mxGeometry x="30" width="280" height="30" as="geometry">
            <mxRectangle width="280" height="30" as="alternateBounds" />
          </mxGeometry>
        </mxCell>
        <mxCell id="VUji3Fqrfajs4CVE4JuU-11" value="" style="shape=tableRow;horizontal=0;startSize=0;swimlaneHead=0;swimlaneBody=0;fillColor=none;collapsible=0;dropTarget=0;points=[[0,0.5],[1,0.5]];portConstraint=eastwest;top=0;left=0;right=0;bottom=0;rounded=1;labelBackgroundColor=none;strokeColor=#788AA3;fontColor=#46495D;" parent="VUji3Fqrfajs4CVE4JuU-1" vertex="1">
          <mxGeometry y="360" width="310" height="30" as="geometry" />
        </mxCell>
        <mxCell id="VUji3Fqrfajs4CVE4JuU-12" value="" style="shape=partialRectangle;connectable=0;fillColor=none;top=0;left=0;bottom=0;right=0;editable=1;overflow=hidden;whiteSpace=wrap;html=1;rounded=1;labelBackgroundColor=none;strokeColor=#788AA3;fontColor=#46495D;" parent="VUji3Fqrfajs4CVE4JuU-11" vertex="1">
          <mxGeometry width="30" height="30" as="geometry">
            <mxRectangle width="30" height="30" as="alternateBounds" />
          </mxGeometry>
        </mxCell>
        <mxCell id="VUji3Fqrfajs4CVE4JuU-13" value="password:&amp;nbsp;&lt;b&gt;varchar(255)&lt;/b&gt;" style="shape=partialRectangle;connectable=0;fillColor=none;top=0;left=0;bottom=0;right=0;align=left;spacingLeft=6;overflow=hidden;whiteSpace=wrap;html=1;rounded=1;labelBackgroundColor=none;strokeColor=#788AA3;fontColor=#46495D;" parent="VUji3Fqrfajs4CVE4JuU-11" vertex="1">
          <mxGeometry x="30" width="280" height="30" as="geometry">
            <mxRectangle width="280" height="30" as="alternateBounds" />
          </mxGeometry>
        </mxCell>
        <mxCell id="u-ZRgJGEgGVV-CXIHLiP-13" value="" style="shape=tableRow;horizontal=0;startSize=0;swimlaneHead=0;swimlaneBody=0;fillColor=none;collapsible=0;dropTarget=0;points=[[0,0.5],[1,0.5]];portConstraint=eastwest;top=0;left=0;right=0;bottom=0;rounded=1;labelBackgroundColor=none;strokeColor=#788AA3;fontColor=#46495D;" parent="VUji3Fqrfajs4CVE4JuU-1" vertex="1">
          <mxGeometry y="390" width="310" height="30" as="geometry" />
        </mxCell>
        <mxCell id="u-ZRgJGEgGVV-CXIHLiP-14" value="" style="shape=partialRectangle;connectable=0;fillColor=none;top=0;left=0;bottom=0;right=0;editable=1;overflow=hidden;whiteSpace=wrap;html=1;rounded=1;labelBackgroundColor=none;strokeColor=#788AA3;fontColor=#46495D;" parent="u-ZRgJGEgGVV-CXIHLiP-13" vertex="1">
          <mxGeometry width="30" height="30" as="geometry">
            <mxRectangle width="30" height="30" as="alternateBounds" />
          </mxGeometry>
        </mxCell>
        <mxCell id="u-ZRgJGEgGVV-CXIHLiP-15" value="foto_user: &lt;b&gt;varchar(225)&lt;/b&gt;" style="shape=partialRectangle;connectable=0;fillColor=none;top=0;left=0;bottom=0;right=0;align=left;spacingLeft=6;overflow=hidden;whiteSpace=wrap;html=1;rounded=1;labelBackgroundColor=none;strokeColor=#788AA3;fontColor=#46495D;" parent="u-ZRgJGEgGVV-CXIHLiP-13" vertex="1">
          <mxGeometry x="30" width="280" height="30" as="geometry">
            <mxRectangle width="280" height="30" as="alternateBounds" />
          </mxGeometry>
        </mxCell>
        <mxCell id="jsvnlrjWWTkFHVT1R_TK-4" value="" style="shape=tableRow;horizontal=0;startSize=0;swimlaneHead=0;swimlaneBody=0;fillColor=none;collapsible=0;dropTarget=0;points=[[0,0.5],[1,0.5]];portConstraint=eastwest;top=0;left=0;right=0;bottom=0;rounded=1;labelBackgroundColor=none;strokeColor=#788AA3;fontColor=#46495D;" parent="VUji3Fqrfajs4CVE4JuU-1" vertex="1">
          <mxGeometry y="420" width="310" height="30" as="geometry" />
        </mxCell>
        <mxCell id="jsvnlrjWWTkFHVT1R_TK-5" value="" style="shape=partialRectangle;connectable=0;fillColor=none;top=0;left=0;bottom=0;right=0;editable=1;overflow=hidden;whiteSpace=wrap;html=1;rounded=1;labelBackgroundColor=none;strokeColor=#788AA3;fontColor=#46495D;" parent="jsvnlrjWWTkFHVT1R_TK-4" vertex="1">
          <mxGeometry width="30" height="30" as="geometry">
            <mxRectangle width="30" height="30" as="alternateBounds" />
          </mxGeometry>
        </mxCell>
        <mxCell id="jsvnlrjWWTkFHVT1R_TK-6" value="created_at: &lt;b&gt;timestamp()&lt;/b&gt;" style="shape=partialRectangle;connectable=0;fillColor=none;top=0;left=0;bottom=0;right=0;align=left;spacingLeft=6;overflow=hidden;whiteSpace=wrap;html=1;rounded=1;labelBackgroundColor=none;strokeColor=#788AA3;fontColor=#46495D;" parent="jsvnlrjWWTkFHVT1R_TK-4" vertex="1">
          <mxGeometry x="30" width="280" height="30" as="geometry">
            <mxRectangle width="280" height="30" as="alternateBounds" />
          </mxGeometry>
        </mxCell>
        <mxCell id="jsvnlrjWWTkFHVT1R_TK-7" value="" style="shape=tableRow;horizontal=0;startSize=0;swimlaneHead=0;swimlaneBody=0;fillColor=none;collapsible=0;dropTarget=0;points=[[0,0.5],[1,0.5]];portConstraint=eastwest;top=0;left=0;right=0;bottom=0;rounded=1;labelBackgroundColor=none;strokeColor=#788AA3;fontColor=#46495D;" parent="VUji3Fqrfajs4CVE4JuU-1" vertex="1">
          <mxGeometry y="450" width="310" height="30" as="geometry" />
        </mxCell>
        <mxCell id="jsvnlrjWWTkFHVT1R_TK-8" value="" style="shape=partialRectangle;connectable=0;fillColor=none;top=0;left=0;bottom=0;right=0;editable=1;overflow=hidden;whiteSpace=wrap;html=1;rounded=1;labelBackgroundColor=none;strokeColor=#788AA3;fontColor=#46495D;" parent="jsvnlrjWWTkFHVT1R_TK-7" vertex="1">
          <mxGeometry width="30" height="30" as="geometry">
            <mxRectangle width="30" height="30" as="alternateBounds" />
          </mxGeometry>
        </mxCell>
        <mxCell id="jsvnlrjWWTkFHVT1R_TK-9" value="updated_at: &lt;b&gt;timestamp()&lt;/b&gt;" style="shape=partialRectangle;connectable=0;fillColor=none;top=0;left=0;bottom=0;right=0;align=left;spacingLeft=6;overflow=hidden;whiteSpace=wrap;html=1;rounded=1;labelBackgroundColor=none;strokeColor=#788AA3;fontColor=#46495D;" parent="jsvnlrjWWTkFHVT1R_TK-7" vertex="1">
          <mxGeometry x="30" width="280" height="30" as="geometry">
            <mxRectangle width="280" height="30" as="alternateBounds" />
          </mxGeometry>
        </mxCell>
        <mxCell id="jsvnlrjWWTkFHVT1R_TK-10" value="" style="shape=tableRow;horizontal=0;startSize=0;swimlaneHead=0;swimlaneBody=0;fillColor=none;collapsible=0;dropTarget=0;points=[[0,0.5],[1,0.5]];portConstraint=eastwest;top=0;left=0;right=0;bottom=0;rounded=1;labelBackgroundColor=none;strokeColor=#788AA3;fontColor=#46495D;" parent="VUji3Fqrfajs4CVE4JuU-1" vertex="1">
          <mxGeometry y="480" width="310" height="30" as="geometry" />
        </mxCell>
        <mxCell id="jsvnlrjWWTkFHVT1R_TK-11" value="" style="shape=partialRectangle;connectable=0;fillColor=none;top=0;left=0;bottom=0;right=0;editable=1;overflow=hidden;whiteSpace=wrap;html=1;rounded=1;labelBackgroundColor=none;strokeColor=#788AA3;fontColor=#46495D;" parent="jsvnlrjWWTkFHVT1R_TK-10" vertex="1">
          <mxGeometry width="30" height="30" as="geometry">
            <mxRectangle width="30" height="30" as="alternateBounds" />
          </mxGeometry>
        </mxCell>
        <mxCell id="jsvnlrjWWTkFHVT1R_TK-12" value="deleted_at: &lt;b&gt;timestamp()&lt;/b&gt;" style="shape=partialRectangle;connectable=0;fillColor=none;top=0;left=0;bottom=0;right=0;align=left;spacingLeft=6;overflow=hidden;whiteSpace=wrap;html=1;rounded=1;labelBackgroundColor=none;strokeColor=#788AA3;fontColor=#46495D;" parent="jsvnlrjWWTkFHVT1R_TK-10" vertex="1">
          <mxGeometry x="30" width="280" height="30" as="geometry">
            <mxRectangle width="280" height="30" as="alternateBounds" />
          </mxGeometry>
        </mxCell>
        <mxCell id="VUji3Fqrfajs4CVE4JuU-30" value="Buku" style="shape=table;startSize=30;container=1;collapsible=1;childLayout=tableLayout;fixedRows=1;rowLines=0;fontStyle=1;align=center;resizeLast=1;html=1;rounded=1;labelBackgroundColor=none;fillColor=#B2C9AB;strokeColor=#788AA3;fontColor=#46495D;" parent="1" vertex="1">
          <mxGeometry x="620" y="567" width="200" height="480" as="geometry" />
        </mxCell>
        <mxCell id="VUji3Fqrfajs4CVE4JuU-31" value="" style="shape=tableRow;horizontal=0;startSize=0;swimlaneHead=0;swimlaneBody=0;fillColor=none;collapsible=0;dropTarget=0;points=[[0,0.5],[1,0.5]];portConstraint=eastwest;top=0;left=0;right=0;bottom=1;rounded=1;labelBackgroundColor=none;strokeColor=#788AA3;fontColor=#46495D;" parent="VUji3Fqrfajs4CVE4JuU-30" vertex="1">
          <mxGeometry y="30" width="200" height="30" as="geometry" />
        </mxCell>
        <mxCell id="VUji3Fqrfajs4CVE4JuU-32" value="PK" style="shape=partialRectangle;connectable=0;fillColor=none;top=0;left=0;bottom=0;right=0;fontStyle=1;overflow=hidden;whiteSpace=wrap;html=1;rounded=1;labelBackgroundColor=none;strokeColor=#788AA3;fontColor=#46495D;" parent="VUji3Fqrfajs4CVE4JuU-31" vertex="1">
          <mxGeometry width="30" height="30" as="geometry">
            <mxRectangle width="30" height="30" as="alternateBounds" />
          </mxGeometry>
        </mxCell>
        <mxCell id="VUji3Fqrfajs4CVE4JuU-33" value="buku_id: bigInt(20)" style="shape=partialRectangle;connectable=0;fillColor=none;top=0;left=0;bottom=0;right=0;align=left;spacingLeft=6;fontStyle=5;overflow=hidden;whiteSpace=wrap;html=1;rounded=1;labelBackgroundColor=none;strokeColor=#788AA3;fontColor=#46495D;" parent="VUji3Fqrfajs4CVE4JuU-31" vertex="1">
          <mxGeometry x="30" width="170" height="30" as="geometry">
            <mxRectangle width="170" height="30" as="alternateBounds" />
          </mxGeometry>
        </mxCell>
        <mxCell id="VUji3Fqrfajs4CVE4JuU-149" value="" style="shape=tableRow;horizontal=0;startSize=0;swimlaneHead=0;swimlaneBody=0;fillColor=none;collapsible=0;dropTarget=0;points=[[0,0.5],[1,0.5]];portConstraint=eastwest;top=0;left=0;right=0;bottom=0;rounded=1;labelBackgroundColor=none;strokeColor=#788AA3;fontColor=#46495D;" parent="VUji3Fqrfajs4CVE4JuU-30" vertex="1">
          <mxGeometry y="60" width="200" height="30" as="geometry" />
        </mxCell>
        <mxCell id="VUji3Fqrfajs4CVE4JuU-150" value="" style="shape=partialRectangle;connectable=0;fillColor=none;top=0;left=0;bottom=0;right=0;editable=1;overflow=hidden;whiteSpace=wrap;html=1;rounded=1;labelBackgroundColor=none;strokeColor=#788AA3;fontColor=#46495D;" parent="VUji3Fqrfajs4CVE4JuU-149" vertex="1">
          <mxGeometry width="30" height="30" as="geometry">
            <mxRectangle width="30" height="30" as="alternateBounds" />
          </mxGeometry>
        </mxCell>
        <mxCell id="VUji3Fqrfajs4CVE4JuU-151" value="isbn: &lt;b&gt;varchar(20)&lt;/b&gt;" style="shape=partialRectangle;connectable=0;fillColor=none;top=0;left=0;bottom=0;right=0;align=left;spacingLeft=6;overflow=hidden;whiteSpace=wrap;html=1;rounded=1;labelBackgroundColor=none;strokeColor=#788AA3;fontColor=#46495D;" parent="VUji3Fqrfajs4CVE4JuU-149" vertex="1">
          <mxGeometry x="30" width="170" height="30" as="geometry">
            <mxRectangle width="170" height="30" as="alternateBounds" />
          </mxGeometry>
        </mxCell>
        <mxCell id="u-ZRgJGEgGVV-CXIHLiP-34" value="" style="shape=tableRow;horizontal=0;startSize=0;swimlaneHead=0;swimlaneBody=0;fillColor=none;collapsible=0;dropTarget=0;points=[[0,0.5],[1,0.5]];portConstraint=eastwest;top=0;left=0;right=0;bottom=0;rounded=1;labelBackgroundColor=none;strokeColor=#788AA3;fontColor=#46495D;" parent="VUji3Fqrfajs4CVE4JuU-30" vertex="1">
          <mxGeometry y="90" width="200" height="30" as="geometry" />
        </mxCell>
        <mxCell id="u-ZRgJGEgGVV-CXIHLiP-35" value="" style="shape=partialRectangle;connectable=0;fillColor=none;top=0;left=0;bottom=0;right=0;editable=1;overflow=hidden;whiteSpace=wrap;html=1;rounded=1;labelBackgroundColor=none;strokeColor=#788AA3;fontColor=#46495D;" parent="u-ZRgJGEgGVV-CXIHLiP-34" vertex="1">
          <mxGeometry width="30" height="30" as="geometry">
            <mxRectangle width="30" height="30" as="alternateBounds" />
          </mxGeometry>
        </mxCell>
        <mxCell id="u-ZRgJGEgGVV-CXIHLiP-36" value="slug: &lt;b&gt;varchar(255)&lt;/b&gt;" style="shape=partialRectangle;connectable=0;fillColor=none;top=0;left=0;bottom=0;right=0;align=left;spacingLeft=6;overflow=hidden;whiteSpace=wrap;html=1;rounded=1;labelBackgroundColor=none;strokeColor=#788AA3;fontColor=#46495D;" parent="u-ZRgJGEgGVV-CXIHLiP-34" vertex="1">
          <mxGeometry x="30" width="170" height="30" as="geometry">
            <mxRectangle width="170" height="30" as="alternateBounds" />
          </mxGeometry>
        </mxCell>
        <mxCell id="VUji3Fqrfajs4CVE4JuU-34" value="" style="shape=tableRow;horizontal=0;startSize=0;swimlaneHead=0;swimlaneBody=0;fillColor=none;collapsible=0;dropTarget=0;points=[[0,0.5],[1,0.5]];portConstraint=eastwest;top=0;left=0;right=0;bottom=0;rounded=1;labelBackgroundColor=none;strokeColor=#788AA3;fontColor=#46495D;" parent="VUji3Fqrfajs4CVE4JuU-30" vertex="1">
          <mxGeometry y="120" width="200" height="30" as="geometry" />
        </mxCell>
        <mxCell id="VUji3Fqrfajs4CVE4JuU-35" value="" style="shape=partialRectangle;connectable=0;fillColor=none;top=0;left=0;bottom=0;right=0;editable=1;overflow=hidden;whiteSpace=wrap;html=1;rounded=1;labelBackgroundColor=none;strokeColor=#788AA3;fontColor=#46495D;" parent="VUji3Fqrfajs4CVE4JuU-34" vertex="1">
          <mxGeometry width="30" height="30" as="geometry">
            <mxRectangle width="30" height="30" as="alternateBounds" />
          </mxGeometry>
        </mxCell>
        <mxCell id="VUji3Fqrfajs4CVE4JuU-36" value="judul: &lt;b&gt;varchar(60)&lt;/b&gt;" style="shape=partialRectangle;connectable=0;fillColor=none;top=0;left=0;bottom=0;right=0;align=left;spacingLeft=6;overflow=hidden;whiteSpace=wrap;html=1;rounded=1;labelBackgroundColor=none;strokeColor=#788AA3;fontColor=#46495D;" parent="VUji3Fqrfajs4CVE4JuU-34" vertex="1">
          <mxGeometry x="30" width="170" height="30" as="geometry">
            <mxRectangle width="170" height="30" as="alternateBounds" />
          </mxGeometry>
        </mxCell>
        <mxCell id="VUji3Fqrfajs4CVE4JuU-37" value="" style="shape=tableRow;horizontal=0;startSize=0;swimlaneHead=0;swimlaneBody=0;fillColor=none;collapsible=0;dropTarget=0;points=[[0,0.5],[1,0.5]];portConstraint=eastwest;top=0;left=0;right=0;bottom=0;rounded=1;labelBackgroundColor=none;strokeColor=#788AA3;fontColor=#46495D;" parent="VUji3Fqrfajs4CVE4JuU-30" vertex="1">
          <mxGeometry y="150" width="200" height="30" as="geometry" />
        </mxCell>
        <mxCell id="VUji3Fqrfajs4CVE4JuU-38" value="" style="shape=partialRectangle;connectable=0;fillColor=none;top=0;left=0;bottom=0;right=0;editable=1;overflow=hidden;whiteSpace=wrap;html=1;rounded=1;labelBackgroundColor=none;strokeColor=#788AA3;fontColor=#46495D;" parent="VUji3Fqrfajs4CVE4JuU-37" vertex="1">
          <mxGeometry width="30" height="30" as="geometry">
            <mxRectangle width="30" height="30" as="alternateBounds" />
          </mxGeometry>
        </mxCell>
        <mxCell id="VUji3Fqrfajs4CVE4JuU-39" value="penulis: &lt;b&gt;varchar(255)&lt;/b&gt;" style="shape=partialRectangle;connectable=0;fillColor=none;top=0;left=0;bottom=0;right=0;align=left;spacingLeft=6;overflow=hidden;whiteSpace=wrap;html=1;rounded=1;labelBackgroundColor=none;strokeColor=#788AA3;fontColor=#46495D;" parent="VUji3Fqrfajs4CVE4JuU-37" vertex="1">
          <mxGeometry x="30" width="170" height="30" as="geometry">
            <mxRectangle width="170" height="30" as="alternateBounds" />
          </mxGeometry>
        </mxCell>
        <mxCell id="VUji3Fqrfajs4CVE4JuU-40" value="" style="shape=tableRow;horizontal=0;startSize=0;swimlaneHead=0;swimlaneBody=0;fillColor=none;collapsible=0;dropTarget=0;points=[[0,0.5],[1,0.5]];portConstraint=eastwest;top=0;left=0;right=0;bottom=0;rounded=1;labelBackgroundColor=none;strokeColor=#788AA3;fontColor=#46495D;" parent="VUji3Fqrfajs4CVE4JuU-30" vertex="1">
          <mxGeometry y="180" width="200" height="30" as="geometry" />
        </mxCell>
        <mxCell id="VUji3Fqrfajs4CVE4JuU-41" value="" style="shape=partialRectangle;connectable=0;fillColor=none;top=0;left=0;bottom=0;right=0;editable=1;overflow=hidden;whiteSpace=wrap;html=1;rounded=1;labelBackgroundColor=none;strokeColor=#788AA3;fontColor=#46495D;" parent="VUji3Fqrfajs4CVE4JuU-40" vertex="1">
          <mxGeometry width="30" height="30" as="geometry">
            <mxRectangle width="30" height="30" as="alternateBounds" />
          </mxGeometry>
        </mxCell>
        <mxCell id="VUji3Fqrfajs4CVE4JuU-42" value="penerbit: &lt;b&gt;varchar(255)&lt;/b&gt;" style="shape=partialRectangle;connectable=0;fillColor=none;top=0;left=0;bottom=0;right=0;align=left;spacingLeft=6;overflow=hidden;whiteSpace=wrap;html=1;rounded=1;labelBackgroundColor=none;strokeColor=#788AA3;fontColor=#46495D;" parent="VUji3Fqrfajs4CVE4JuU-40" vertex="1">
          <mxGeometry x="30" width="170" height="30" as="geometry">
            <mxRectangle width="170" height="30" as="alternateBounds" />
          </mxGeometry>
        </mxCell>
        <mxCell id="VUji3Fqrfajs4CVE4JuU-43" value="" style="shape=tableRow;horizontal=0;startSize=0;swimlaneHead=0;swimlaneBody=0;fillColor=none;collapsible=0;dropTarget=0;points=[[0,0.5],[1,0.5]];portConstraint=eastwest;top=0;left=0;right=0;bottom=0;rounded=1;labelBackgroundColor=none;strokeColor=#788AA3;fontColor=#46495D;" parent="VUji3Fqrfajs4CVE4JuU-30" vertex="1">
          <mxGeometry y="210" width="200" height="30" as="geometry" />
        </mxCell>
        <mxCell id="VUji3Fqrfajs4CVE4JuU-44" value="" style="shape=partialRectangle;connectable=0;fillColor=none;top=0;left=0;bottom=0;right=0;editable=1;overflow=hidden;whiteSpace=wrap;html=1;rounded=1;labelBackgroundColor=none;strokeColor=#788AA3;fontColor=#46495D;" parent="VUji3Fqrfajs4CVE4JuU-43" vertex="1">
          <mxGeometry width="30" height="30" as="geometry">
            <mxRectangle width="30" height="30" as="alternateBounds" />
          </mxGeometry>
        </mxCell>
        <mxCell id="VUji3Fqrfajs4CVE4JuU-45" value="tahun_terbit: &lt;b&gt;year&lt;/b&gt;" style="shape=partialRectangle;connectable=0;fillColor=none;top=0;left=0;bottom=0;right=0;align=left;spacingLeft=6;overflow=hidden;whiteSpace=wrap;html=1;rounded=1;labelBackgroundColor=none;strokeColor=#788AA3;fontColor=#46495D;" parent="VUji3Fqrfajs4CVE4JuU-43" vertex="1">
          <mxGeometry x="30" width="170" height="30" as="geometry">
            <mxRectangle width="170" height="30" as="alternateBounds" />
          </mxGeometry>
        </mxCell>
        <mxCell id="u-ZRgJGEgGVV-CXIHLiP-89" value="" style="shape=tableRow;horizontal=0;startSize=0;swimlaneHead=0;swimlaneBody=0;fillColor=none;collapsible=0;dropTarget=0;points=[[0,0.5],[1,0.5]];portConstraint=eastwest;top=0;left=0;right=0;bottom=0;rounded=1;labelBackgroundColor=none;strokeColor=#788AA3;fontColor=#46495D;" parent="VUji3Fqrfajs4CVE4JuU-30" vertex="1">
          <mxGeometry y="240" width="200" height="30" as="geometry" />
        </mxCell>
        <mxCell id="u-ZRgJGEgGVV-CXIHLiP-90" value="" style="shape=partialRectangle;connectable=0;fillColor=none;top=0;left=0;bottom=0;right=0;editable=1;overflow=hidden;whiteSpace=wrap;html=1;rounded=1;labelBackgroundColor=none;strokeColor=#788AA3;fontColor=#46495D;" parent="u-ZRgJGEgGVV-CXIHLiP-89" vertex="1">
          <mxGeometry width="30" height="30" as="geometry">
            <mxRectangle width="30" height="30" as="alternateBounds" />
          </mxGeometry>
        </mxCell>
        <mxCell id="u-ZRgJGEgGVV-CXIHLiP-91" value="stok_buku:&amp;nbsp;&lt;b style=&quot;border-color: var(--border-color);&quot;&gt;int&lt;/b&gt;" style="shape=partialRectangle;connectable=0;fillColor=none;top=0;left=0;bottom=0;right=0;align=left;spacingLeft=6;overflow=hidden;whiteSpace=wrap;html=1;rounded=1;labelBackgroundColor=none;strokeColor=#788AA3;fontColor=#46495D;" parent="u-ZRgJGEgGVV-CXIHLiP-89" vertex="1">
          <mxGeometry x="30" width="170" height="30" as="geometry">
            <mxRectangle width="170" height="30" as="alternateBounds" />
          </mxGeometry>
        </mxCell>
        <mxCell id="u-ZRgJGEgGVV-CXIHLiP-37" value="" style="shape=tableRow;horizontal=0;startSize=0;swimlaneHead=0;swimlaneBody=0;fillColor=none;collapsible=0;dropTarget=0;points=[[0,0.5],[1,0.5]];portConstraint=eastwest;top=0;left=0;right=0;bottom=0;rounded=1;labelBackgroundColor=none;strokeColor=#788AA3;fontColor=#46495D;" parent="VUji3Fqrfajs4CVE4JuU-30" vertex="1">
          <mxGeometry y="270" width="200" height="30" as="geometry" />
        </mxCell>
        <mxCell id="u-ZRgJGEgGVV-CXIHLiP-38" value="" style="shape=partialRectangle;connectable=0;fillColor=none;top=0;left=0;bottom=0;right=0;editable=1;overflow=hidden;whiteSpace=wrap;html=1;rounded=1;labelBackgroundColor=none;strokeColor=#788AA3;fontColor=#46495D;" parent="u-ZRgJGEgGVV-CXIHLiP-37" vertex="1">
          <mxGeometry width="30" height="30" as="geometry">
            <mxRectangle width="30" height="30" as="alternateBounds" />
          </mxGeometry>
        </mxCell>
        <mxCell id="u-ZRgJGEgGVV-CXIHLiP-39" value="deskripsi_buku: &lt;b&gt;text&lt;/b&gt;" style="shape=partialRectangle;connectable=0;fillColor=none;top=0;left=0;bottom=0;right=0;align=left;spacingLeft=6;overflow=hidden;whiteSpace=wrap;html=1;rounded=1;labelBackgroundColor=none;strokeColor=#788AA3;fontColor=#46495D;" parent="u-ZRgJGEgGVV-CXIHLiP-37" vertex="1">
          <mxGeometry x="30" width="170" height="30" as="geometry">
            <mxRectangle width="170" height="30" as="alternateBounds" />
          </mxGeometry>
        </mxCell>
        <mxCell id="u-ZRgJGEgGVV-CXIHLiP-19" value="" style="shape=tableRow;horizontal=0;startSize=0;swimlaneHead=0;swimlaneBody=0;fillColor=none;collapsible=0;dropTarget=0;points=[[0,0.5],[1,0.5]];portConstraint=eastwest;top=0;left=0;right=0;bottom=0;rounded=1;labelBackgroundColor=none;strokeColor=#788AA3;fontColor=#46495D;" parent="VUji3Fqrfajs4CVE4JuU-30" vertex="1">
          <mxGeometry y="300" width="200" height="30" as="geometry" />
        </mxCell>
        <mxCell id="u-ZRgJGEgGVV-CXIHLiP-20" value="" style="shape=partialRectangle;connectable=0;fillColor=none;top=0;left=0;bottom=0;right=0;editable=1;overflow=hidden;whiteSpace=wrap;html=1;rounded=1;labelBackgroundColor=none;strokeColor=#788AA3;fontColor=#46495D;" parent="u-ZRgJGEgGVV-CXIHLiP-19" vertex="1">
          <mxGeometry width="30" height="30" as="geometry">
            <mxRectangle width="30" height="30" as="alternateBounds" />
          </mxGeometry>
        </mxCell>
        <mxCell id="u-ZRgJGEgGVV-CXIHLiP-21" value="sampul_buku:&amp;nbsp;&lt;b style=&quot;border-color: var(--border-color);&quot;&gt;varchar(225)&lt;/b&gt;" style="shape=partialRectangle;connectable=0;fillColor=none;top=0;left=0;bottom=0;right=0;align=left;spacingLeft=6;overflow=hidden;whiteSpace=wrap;html=1;rounded=1;labelBackgroundColor=none;strokeColor=#788AA3;fontColor=#46495D;" parent="u-ZRgJGEgGVV-CXIHLiP-19" vertex="1">
          <mxGeometry x="30" width="170" height="30" as="geometry">
            <mxRectangle width="170" height="30" as="alternateBounds" />
          </mxGeometry>
        </mxCell>
        <mxCell id="jsvnlrjWWTkFHVT1R_TK-93" value="" style="shape=tableRow;horizontal=0;startSize=0;swimlaneHead=0;swimlaneBody=0;fillColor=none;collapsible=0;dropTarget=0;points=[[0,0.5],[1,0.5]];portConstraint=eastwest;top=0;left=0;right=0;bottom=0;rounded=1;labelBackgroundColor=none;strokeColor=#788AA3;fontColor=#46495D;" parent="VUji3Fqrfajs4CVE4JuU-30" vertex="1">
          <mxGeometry y="330" width="200" height="30" as="geometry" />
        </mxCell>
        <mxCell id="jsvnlrjWWTkFHVT1R_TK-94" value="" style="shape=partialRectangle;connectable=0;fillColor=none;top=0;left=0;bottom=0;right=0;editable=1;overflow=hidden;whiteSpace=wrap;html=1;rounded=1;labelBackgroundColor=none;strokeColor=#788AA3;fontColor=#46495D;" parent="jsvnlrjWWTkFHVT1R_TK-93" vertex="1">
          <mxGeometry width="30" height="30" as="geometry">
            <mxRectangle width="30" height="30" as="alternateBounds" />
          </mxGeometry>
        </mxCell>
        <mxCell id="jsvnlrjWWTkFHVT1R_TK-95" value="created_by:&amp;nbsp;&lt;b style=&quot;border-color: var(--border-color);&quot;&gt;bint()&lt;/b&gt;" style="shape=partialRectangle;connectable=0;fillColor=none;top=0;left=0;bottom=0;right=0;align=left;spacingLeft=6;overflow=hidden;whiteSpace=wrap;html=1;rounded=1;labelBackgroundColor=none;strokeColor=#788AA3;fontColor=#46495D;" parent="jsvnlrjWWTkFHVT1R_TK-93" vertex="1">
          <mxGeometry x="30" width="170" height="30" as="geometry">
            <mxRectangle width="170" height="30" as="alternateBounds" />
          </mxGeometry>
        </mxCell>
        <mxCell id="jsvnlrjWWTkFHVT1R_TK-96" value="" style="shape=tableRow;horizontal=0;startSize=0;swimlaneHead=0;swimlaneBody=0;fillColor=none;collapsible=0;dropTarget=0;points=[[0,0.5],[1,0.5]];portConstraint=eastwest;top=0;left=0;right=0;bottom=0;rounded=1;labelBackgroundColor=none;strokeColor=#788AA3;fontColor=#46495D;" parent="VUji3Fqrfajs4CVE4JuU-30" vertex="1">
          <mxGeometry y="360" width="200" height="30" as="geometry" />
        </mxCell>
        <mxCell id="jsvnlrjWWTkFHVT1R_TK-97" value="" style="shape=partialRectangle;connectable=0;fillColor=none;top=0;left=0;bottom=0;right=0;editable=1;overflow=hidden;whiteSpace=wrap;html=1;rounded=1;labelBackgroundColor=none;strokeColor=#788AA3;fontColor=#46495D;" parent="jsvnlrjWWTkFHVT1R_TK-96" vertex="1">
          <mxGeometry width="30" height="30" as="geometry">
            <mxRectangle width="30" height="30" as="alternateBounds" />
          </mxGeometry>
        </mxCell>
        <mxCell id="jsvnlrjWWTkFHVT1R_TK-98" value="updated_by:&amp;nbsp;&lt;b style=&quot;border-color: var(--border-color);&quot;&gt;bint()&lt;/b&gt;" style="shape=partialRectangle;connectable=0;fillColor=none;top=0;left=0;bottom=0;right=0;align=left;spacingLeft=6;overflow=hidden;whiteSpace=wrap;html=1;rounded=1;labelBackgroundColor=none;strokeColor=#788AA3;fontColor=#46495D;" parent="jsvnlrjWWTkFHVT1R_TK-96" vertex="1">
          <mxGeometry x="30" width="170" height="30" as="geometry">
            <mxRectangle width="170" height="30" as="alternateBounds" />
          </mxGeometry>
        </mxCell>
        <mxCell id="jsvnlrjWWTkFHVT1R_TK-99" value="" style="shape=tableRow;horizontal=0;startSize=0;swimlaneHead=0;swimlaneBody=0;fillColor=none;collapsible=0;dropTarget=0;points=[[0,0.5],[1,0.5]];portConstraint=eastwest;top=0;left=0;right=0;bottom=0;rounded=1;labelBackgroundColor=none;strokeColor=#788AA3;fontColor=#46495D;" parent="VUji3Fqrfajs4CVE4JuU-30" vertex="1">
          <mxGeometry y="390" width="200" height="30" as="geometry" />
        </mxCell>
        <mxCell id="jsvnlrjWWTkFHVT1R_TK-100" value="" style="shape=partialRectangle;connectable=0;fillColor=none;top=0;left=0;bottom=0;right=0;editable=1;overflow=hidden;whiteSpace=wrap;html=1;rounded=1;labelBackgroundColor=none;strokeColor=#788AA3;fontColor=#46495D;" parent="jsvnlrjWWTkFHVT1R_TK-99" vertex="1">
          <mxGeometry width="30" height="30" as="geometry">
            <mxRectangle width="30" height="30" as="alternateBounds" />
          </mxGeometry>
        </mxCell>
        <mxCell id="jsvnlrjWWTkFHVT1R_TK-101" value="created_at:&amp;nbsp;&lt;b style=&quot;border-color: var(--border-color);&quot;&gt;timestamp()&lt;/b&gt;" style="shape=partialRectangle;connectable=0;fillColor=none;top=0;left=0;bottom=0;right=0;align=left;spacingLeft=6;overflow=hidden;whiteSpace=wrap;html=1;rounded=1;labelBackgroundColor=none;strokeColor=#788AA3;fontColor=#46495D;" parent="jsvnlrjWWTkFHVT1R_TK-99" vertex="1">
          <mxGeometry x="30" width="170" height="30" as="geometry">
            <mxRectangle width="170" height="30" as="alternateBounds" />
          </mxGeometry>
        </mxCell>
        <mxCell id="jsvnlrjWWTkFHVT1R_TK-102" value="" style="shape=tableRow;horizontal=0;startSize=0;swimlaneHead=0;swimlaneBody=0;fillColor=none;collapsible=0;dropTarget=0;points=[[0,0.5],[1,0.5]];portConstraint=eastwest;top=0;left=0;right=0;bottom=0;rounded=1;labelBackgroundColor=none;strokeColor=#788AA3;fontColor=#46495D;" parent="VUji3Fqrfajs4CVE4JuU-30" vertex="1">
          <mxGeometry y="420" width="200" height="30" as="geometry" />
        </mxCell>
        <mxCell id="jsvnlrjWWTkFHVT1R_TK-103" value="" style="shape=partialRectangle;connectable=0;fillColor=none;top=0;left=0;bottom=0;right=0;editable=1;overflow=hidden;whiteSpace=wrap;html=1;rounded=1;labelBackgroundColor=none;strokeColor=#788AA3;fontColor=#46495D;" parent="jsvnlrjWWTkFHVT1R_TK-102" vertex="1">
          <mxGeometry width="30" height="30" as="geometry">
            <mxRectangle width="30" height="30" as="alternateBounds" />
          </mxGeometry>
        </mxCell>
        <mxCell id="jsvnlrjWWTkFHVT1R_TK-104" value="updated_at:&amp;nbsp;&lt;b style=&quot;border-color: var(--border-color);&quot;&gt;timestamp()&lt;/b&gt;" style="shape=partialRectangle;connectable=0;fillColor=none;top=0;left=0;bottom=0;right=0;align=left;spacingLeft=6;overflow=hidden;whiteSpace=wrap;html=1;rounded=1;labelBackgroundColor=none;strokeColor=#788AA3;fontColor=#46495D;" parent="jsvnlrjWWTkFHVT1R_TK-102" vertex="1">
          <mxGeometry x="30" width="170" height="30" as="geometry">
            <mxRectangle width="170" height="30" as="alternateBounds" />
          </mxGeometry>
        </mxCell>
        <mxCell id="jsvnlrjWWTkFHVT1R_TK-105" value="" style="shape=tableRow;horizontal=0;startSize=0;swimlaneHead=0;swimlaneBody=0;fillColor=none;collapsible=0;dropTarget=0;points=[[0,0.5],[1,0.5]];portConstraint=eastwest;top=0;left=0;right=0;bottom=0;rounded=1;labelBackgroundColor=none;strokeColor=#788AA3;fontColor=#46495D;" parent="VUji3Fqrfajs4CVE4JuU-30" vertex="1">
          <mxGeometry y="450" width="200" height="30" as="geometry" />
        </mxCell>
        <mxCell id="jsvnlrjWWTkFHVT1R_TK-106" value="" style="shape=partialRectangle;connectable=0;fillColor=none;top=0;left=0;bottom=0;right=0;editable=1;overflow=hidden;whiteSpace=wrap;html=1;rounded=1;labelBackgroundColor=none;strokeColor=#788AA3;fontColor=#46495D;" parent="jsvnlrjWWTkFHVT1R_TK-105" vertex="1">
          <mxGeometry width="30" height="30" as="geometry">
            <mxRectangle width="30" height="30" as="alternateBounds" />
          </mxGeometry>
        </mxCell>
        <mxCell id="jsvnlrjWWTkFHVT1R_TK-107" value="deleted_at:&amp;nbsp;&lt;b style=&quot;border-color: var(--border-color);&quot;&gt;timestamp()&lt;/b&gt;" style="shape=partialRectangle;connectable=0;fillColor=none;top=0;left=0;bottom=0;right=0;align=left;spacingLeft=6;overflow=hidden;whiteSpace=wrap;html=1;rounded=1;labelBackgroundColor=none;strokeColor=#788AA3;fontColor=#46495D;" parent="jsvnlrjWWTkFHVT1R_TK-105" vertex="1">
          <mxGeometry x="30" width="170" height="30" as="geometry">
            <mxRectangle width="170" height="30" as="alternateBounds" />
          </mxGeometry>
        </mxCell>
        <mxCell id="VUji3Fqrfajs4CVE4JuU-49" value="Kategori_buku" style="shape=table;startSize=30;container=1;collapsible=1;childLayout=tableLayout;fixedRows=1;rowLines=0;fontStyle=1;align=center;resizeLast=1;html=1;rounded=1;labelBackgroundColor=none;fillColor=#B2C9AB;strokeColor=#788AA3;fontColor=#46495D;" parent="1" vertex="1">
          <mxGeometry x="880" y="927" width="210" height="120" as="geometry" />
        </mxCell>
        <mxCell id="VUji3Fqrfajs4CVE4JuU-50" value="" style="shape=tableRow;horizontal=0;startSize=0;swimlaneHead=0;swimlaneBody=0;fillColor=none;collapsible=0;dropTarget=0;points=[[0,0.5],[1,0.5]];portConstraint=eastwest;top=0;left=0;right=0;bottom=1;rounded=1;labelBackgroundColor=none;strokeColor=#788AA3;fontColor=#46495D;" parent="VUji3Fqrfajs4CVE4JuU-49" vertex="1">
          <mxGeometry y="30" width="210" height="30" as="geometry" />
        </mxCell>
        <mxCell id="VUji3Fqrfajs4CVE4JuU-51" value="PK" style="shape=partialRectangle;connectable=0;fillColor=none;top=0;left=0;bottom=0;right=0;fontStyle=1;overflow=hidden;whiteSpace=wrap;html=1;rounded=1;labelBackgroundColor=none;strokeColor=#788AA3;fontColor=#46495D;" parent="VUji3Fqrfajs4CVE4JuU-50" vertex="1">
          <mxGeometry width="30" height="30" as="geometry">
            <mxRectangle width="30" height="30" as="alternateBounds" />
          </mxGeometry>
        </mxCell>
        <mxCell id="VUji3Fqrfajs4CVE4JuU-52" value="kategori_buku_id: bigInt(20)" style="shape=partialRectangle;connectable=0;fillColor=none;top=0;left=0;bottom=0;right=0;align=left;spacingLeft=6;fontStyle=5;overflow=hidden;whiteSpace=wrap;html=1;rounded=1;labelBackgroundColor=none;strokeColor=#788AA3;fontColor=#46495D;" parent="VUji3Fqrfajs4CVE4JuU-50" vertex="1">
          <mxGeometry x="30" width="180" height="30" as="geometry">
            <mxRectangle width="180" height="30" as="alternateBounds" />
          </mxGeometry>
        </mxCell>
        <mxCell id="VUji3Fqrfajs4CVE4JuU-53" value="" style="shape=tableRow;horizontal=0;startSize=0;swimlaneHead=0;swimlaneBody=0;fillColor=none;collapsible=0;dropTarget=0;points=[[0,0.5],[1,0.5]];portConstraint=eastwest;top=0;left=0;right=0;bottom=0;rounded=1;labelBackgroundColor=none;strokeColor=#788AA3;fontColor=#46495D;" parent="VUji3Fqrfajs4CVE4JuU-49" vertex="1">
          <mxGeometry y="60" width="210" height="30" as="geometry" />
        </mxCell>
        <mxCell id="VUji3Fqrfajs4CVE4JuU-54" value="FK" style="shape=partialRectangle;connectable=0;fillColor=none;top=0;left=0;bottom=0;right=0;editable=1;overflow=hidden;whiteSpace=wrap;html=1;rounded=1;labelBackgroundColor=none;strokeColor=#788AA3;fontColor=#46495D;" parent="VUji3Fqrfajs4CVE4JuU-53" vertex="1">
          <mxGeometry width="30" height="30" as="geometry">
            <mxRectangle width="30" height="30" as="alternateBounds" />
          </mxGeometry>
        </mxCell>
        <mxCell id="VUji3Fqrfajs4CVE4JuU-55" value="kategori_id: &lt;b&gt;bigInt(20)&lt;/b&gt;" style="shape=partialRectangle;connectable=0;fillColor=none;top=0;left=0;bottom=0;right=0;align=left;spacingLeft=6;overflow=hidden;whiteSpace=wrap;html=1;rounded=1;labelBackgroundColor=none;strokeColor=#788AA3;fontColor=#46495D;" parent="VUji3Fqrfajs4CVE4JuU-53" vertex="1">
          <mxGeometry x="30" width="180" height="30" as="geometry">
            <mxRectangle width="180" height="30" as="alternateBounds" />
          </mxGeometry>
        </mxCell>
        <mxCell id="yR3BL-ynLd47crQW9BLM-13" value="" style="shape=tableRow;horizontal=0;startSize=0;swimlaneHead=0;swimlaneBody=0;fillColor=none;collapsible=0;dropTarget=0;points=[[0,0.5],[1,0.5]];portConstraint=eastwest;top=0;left=0;right=0;bottom=0;rounded=1;labelBackgroundColor=none;strokeColor=#788AA3;fontColor=#46495D;" parent="VUji3Fqrfajs4CVE4JuU-49" vertex="1">
          <mxGeometry y="90" width="210" height="30" as="geometry" />
        </mxCell>
        <mxCell id="yR3BL-ynLd47crQW9BLM-14" value="FK" style="shape=partialRectangle;connectable=0;fillColor=none;top=0;left=0;bottom=0;right=0;editable=1;overflow=hidden;whiteSpace=wrap;html=1;rounded=1;labelBackgroundColor=none;strokeColor=#788AA3;fontColor=#46495D;" parent="yR3BL-ynLd47crQW9BLM-13" vertex="1">
          <mxGeometry width="30" height="30" as="geometry">
            <mxRectangle width="30" height="30" as="alternateBounds" />
          </mxGeometry>
        </mxCell>
        <mxCell id="yR3BL-ynLd47crQW9BLM-15" value="buku_id:&amp;nbsp;&lt;b&gt;bigInt(20)&lt;/b&gt;" style="shape=partialRectangle;connectable=0;fillColor=none;top=0;left=0;bottom=0;right=0;align=left;spacingLeft=6;overflow=hidden;whiteSpace=wrap;html=1;rounded=1;labelBackgroundColor=none;strokeColor=#788AA3;fontColor=#46495D;" parent="yR3BL-ynLd47crQW9BLM-13" vertex="1">
          <mxGeometry x="30" width="180" height="30" as="geometry">
            <mxRectangle width="180" height="30" as="alternateBounds" />
          </mxGeometry>
        </mxCell>
        <mxCell id="VUji3Fqrfajs4CVE4JuU-62" value="Koleksi" style="shape=table;startSize=30;container=1;collapsible=1;childLayout=tableLayout;fixedRows=1;rowLines=0;fontStyle=1;align=center;resizeLast=1;html=1;rounded=1;labelBackgroundColor=none;fillColor=#B2C9AB;strokeColor=#788AA3;fontColor=#46495D;" parent="1" vertex="1">
          <mxGeometry x="880" y="617" width="190" height="290" as="geometry" />
        </mxCell>
        <mxCell id="VUji3Fqrfajs4CVE4JuU-63" value="" style="shape=tableRow;horizontal=0;startSize=0;swimlaneHead=0;swimlaneBody=0;fillColor=none;collapsible=0;dropTarget=0;points=[[0,0.5],[1,0.5]];portConstraint=eastwest;top=0;left=0;right=0;bottom=1;rounded=1;labelBackgroundColor=none;strokeColor=#788AA3;fontColor=#46495D;" parent="VUji3Fqrfajs4CVE4JuU-62" vertex="1">
          <mxGeometry y="30" width="190" height="30" as="geometry" />
        </mxCell>
        <mxCell id="VUji3Fqrfajs4CVE4JuU-64" value="PK" style="shape=partialRectangle;connectable=0;fillColor=none;top=0;left=0;bottom=0;right=0;fontStyle=1;overflow=hidden;whiteSpace=wrap;html=1;rounded=1;labelBackgroundColor=none;strokeColor=#788AA3;fontColor=#46495D;" parent="VUji3Fqrfajs4CVE4JuU-63" vertex="1">
          <mxGeometry width="30" height="30" as="geometry">
            <mxRectangle width="30" height="30" as="alternateBounds" />
          </mxGeometry>
        </mxCell>
        <mxCell id="VUji3Fqrfajs4CVE4JuU-65" value="koleksi id: bigInt(20)" style="shape=partialRectangle;connectable=0;fillColor=none;top=0;left=0;bottom=0;right=0;align=left;spacingLeft=6;fontStyle=5;overflow=hidden;whiteSpace=wrap;html=1;rounded=1;labelBackgroundColor=none;strokeColor=#788AA3;fontColor=#46495D;" parent="VUji3Fqrfajs4CVE4JuU-63" vertex="1">
          <mxGeometry x="30" width="160" height="30" as="geometry">
            <mxRectangle width="160" height="30" as="alternateBounds" />
          </mxGeometry>
        </mxCell>
        <mxCell id="VUji3Fqrfajs4CVE4JuU-66" value="" style="shape=tableRow;horizontal=0;startSize=0;swimlaneHead=0;swimlaneBody=0;fillColor=none;collapsible=0;dropTarget=0;points=[[0,0.5],[1,0.5]];portConstraint=eastwest;top=0;left=0;right=0;bottom=0;rounded=1;labelBackgroundColor=none;strokeColor=#788AA3;fontColor=#46495D;" parent="VUji3Fqrfajs4CVE4JuU-62" vertex="1">
          <mxGeometry y="60" width="190" height="30" as="geometry" />
        </mxCell>
        <mxCell id="VUji3Fqrfajs4CVE4JuU-67" value="FK" style="shape=partialRectangle;connectable=0;fillColor=none;top=0;left=0;bottom=0;right=0;editable=1;overflow=hidden;whiteSpace=wrap;html=1;rounded=1;labelBackgroundColor=none;strokeColor=#788AA3;fontColor=#46495D;" parent="VUji3Fqrfajs4CVE4JuU-66" vertex="1">
          <mxGeometry width="30" height="30" as="geometry">
            <mxRectangle width="30" height="30" as="alternateBounds" />
          </mxGeometry>
        </mxCell>
        <mxCell id="VUji3Fqrfajs4CVE4JuU-68" value="user_id: &lt;b&gt;bigInt(20)&lt;/b&gt;" style="shape=partialRectangle;connectable=0;fillColor=none;top=0;left=0;bottom=0;right=0;align=left;spacingLeft=6;overflow=hidden;whiteSpace=wrap;html=1;rounded=1;labelBackgroundColor=none;strokeColor=#788AA3;fontColor=#46495D;" parent="VUji3Fqrfajs4CVE4JuU-66" vertex="1">
          <mxGeometry x="30" width="160" height="30" as="geometry">
            <mxRectangle width="160" height="30" as="alternateBounds" />
          </mxGeometry>
        </mxCell>
        <mxCell id="VUji3Fqrfajs4CVE4JuU-69" value="" style="shape=tableRow;horizontal=0;startSize=0;swimlaneHead=0;swimlaneBody=0;fillColor=none;collapsible=0;dropTarget=0;points=[[0,0.5],[1,0.5]];portConstraint=eastwest;top=0;left=0;right=0;bottom=0;rounded=1;labelBackgroundColor=none;strokeColor=#788AA3;fontColor=#46495D;" parent="VUji3Fqrfajs4CVE4JuU-62" vertex="1">
          <mxGeometry y="90" width="190" height="40" as="geometry" />
        </mxCell>
        <mxCell id="VUji3Fqrfajs4CVE4JuU-70" value="FK" style="shape=partialRectangle;connectable=0;fillColor=none;top=0;left=0;bottom=0;right=0;editable=1;overflow=hidden;whiteSpace=wrap;html=1;rounded=1;labelBackgroundColor=none;strokeColor=#788AA3;fontColor=#46495D;" parent="VUji3Fqrfajs4CVE4JuU-69" vertex="1">
          <mxGeometry width="30" height="40" as="geometry">
            <mxRectangle width="30" height="40" as="alternateBounds" />
          </mxGeometry>
        </mxCell>
        <mxCell id="VUji3Fqrfajs4CVE4JuU-71" value="buku_id: &lt;b&gt;bigInt(20)&lt;/b&gt;" style="shape=partialRectangle;connectable=0;fillColor=none;top=0;left=0;bottom=0;right=0;align=left;spacingLeft=6;overflow=hidden;whiteSpace=wrap;html=1;rounded=1;labelBackgroundColor=none;strokeColor=#788AA3;fontColor=#46495D;" parent="VUji3Fqrfajs4CVE4JuU-69" vertex="1">
          <mxGeometry x="30" width="160" height="40" as="geometry">
            <mxRectangle width="160" height="40" as="alternateBounds" />
          </mxGeometry>
        </mxCell>
        <mxCell id="jsvnlrjWWTkFHVT1R_TK-13" value="" style="shape=tableRow;horizontal=0;startSize=0;swimlaneHead=0;swimlaneBody=0;fillColor=none;collapsible=0;dropTarget=0;points=[[0,0.5],[1,0.5]];portConstraint=eastwest;top=0;left=0;right=0;bottom=0;rounded=1;labelBackgroundColor=none;strokeColor=#788AA3;fontColor=#46495D;" parent="VUji3Fqrfajs4CVE4JuU-62" vertex="1">
          <mxGeometry y="130" width="190" height="40" as="geometry" />
        </mxCell>
        <mxCell id="jsvnlrjWWTkFHVT1R_TK-14" value="" style="shape=partialRectangle;connectable=0;fillColor=none;top=0;left=0;bottom=0;right=0;editable=1;overflow=hidden;whiteSpace=wrap;html=1;rounded=1;labelBackgroundColor=none;strokeColor=#788AA3;fontColor=#46495D;" parent="jsvnlrjWWTkFHVT1R_TK-13" vertex="1">
          <mxGeometry width="30" height="40" as="geometry">
            <mxRectangle width="30" height="40" as="alternateBounds" />
          </mxGeometry>
        </mxCell>
        <mxCell id="jsvnlrjWWTkFHVT1R_TK-15" value="slug :&amp;nbsp;&lt;b style=&quot;border-color: var(--border-color);&quot;&gt;varchar(255)&lt;/b&gt;" style="shape=partialRectangle;connectable=0;fillColor=none;top=0;left=0;bottom=0;right=0;align=left;spacingLeft=6;overflow=hidden;whiteSpace=wrap;html=1;rounded=1;labelBackgroundColor=none;strokeColor=#788AA3;fontColor=#46495D;" parent="jsvnlrjWWTkFHVT1R_TK-13" vertex="1">
          <mxGeometry x="30" width="160" height="40" as="geometry">
            <mxRectangle width="160" height="40" as="alternateBounds" />
          </mxGeometry>
        </mxCell>
        <mxCell id="jsvnlrjWWTkFHVT1R_TK-32" value="" style="shape=tableRow;horizontal=0;startSize=0;swimlaneHead=0;swimlaneBody=0;fillColor=none;collapsible=0;dropTarget=0;points=[[0,0.5],[1,0.5]];portConstraint=eastwest;top=0;left=0;right=0;bottom=0;rounded=1;labelBackgroundColor=none;strokeColor=#788AA3;fontColor=#46495D;" parent="VUji3Fqrfajs4CVE4JuU-62" vertex="1">
          <mxGeometry y="170" width="190" height="40" as="geometry" />
        </mxCell>
        <mxCell id="jsvnlrjWWTkFHVT1R_TK-33" value="" style="shape=partialRectangle;connectable=0;fillColor=none;top=0;left=0;bottom=0;right=0;editable=1;overflow=hidden;whiteSpace=wrap;html=1;rounded=1;labelBackgroundColor=none;strokeColor=#788AA3;fontColor=#46495D;" parent="jsvnlrjWWTkFHVT1R_TK-32" vertex="1">
          <mxGeometry width="30" height="40" as="geometry">
            <mxRectangle width="30" height="40" as="alternateBounds" />
          </mxGeometry>
        </mxCell>
        <mxCell id="jsvnlrjWWTkFHVT1R_TK-34" value="created_at:&amp;nbsp;&lt;b style=&quot;border-color: var(--border-color);&quot;&gt;timestamp()&lt;/b&gt;" style="shape=partialRectangle;connectable=0;fillColor=none;top=0;left=0;bottom=0;right=0;align=left;spacingLeft=6;overflow=hidden;whiteSpace=wrap;html=1;rounded=1;labelBackgroundColor=none;strokeColor=#788AA3;fontColor=#46495D;" parent="jsvnlrjWWTkFHVT1R_TK-32" vertex="1">
          <mxGeometry x="30" width="160" height="40" as="geometry">
            <mxRectangle width="160" height="40" as="alternateBounds" />
          </mxGeometry>
        </mxCell>
        <mxCell id="jsvnlrjWWTkFHVT1R_TK-44" value="" style="shape=tableRow;horizontal=0;startSize=0;swimlaneHead=0;swimlaneBody=0;fillColor=none;collapsible=0;dropTarget=0;points=[[0,0.5],[1,0.5]];portConstraint=eastwest;top=0;left=0;right=0;bottom=0;rounded=1;labelBackgroundColor=none;strokeColor=#788AA3;fontColor=#46495D;" parent="VUji3Fqrfajs4CVE4JuU-62" vertex="1">
          <mxGeometry y="210" width="190" height="40" as="geometry" />
        </mxCell>
        <mxCell id="jsvnlrjWWTkFHVT1R_TK-45" value="" style="shape=partialRectangle;connectable=0;fillColor=none;top=0;left=0;bottom=0;right=0;editable=1;overflow=hidden;whiteSpace=wrap;html=1;rounded=1;labelBackgroundColor=none;strokeColor=#788AA3;fontColor=#46495D;" parent="jsvnlrjWWTkFHVT1R_TK-44" vertex="1">
          <mxGeometry width="30" height="40" as="geometry">
            <mxRectangle width="30" height="40" as="alternateBounds" />
          </mxGeometry>
        </mxCell>
        <mxCell id="jsvnlrjWWTkFHVT1R_TK-46" value="updated_at:&amp;nbsp;&lt;b style=&quot;border-color: var(--border-color);&quot;&gt;timestamp()&lt;/b&gt;" style="shape=partialRectangle;connectable=0;fillColor=none;top=0;left=0;bottom=0;right=0;align=left;spacingLeft=6;overflow=hidden;whiteSpace=wrap;html=1;rounded=1;labelBackgroundColor=none;strokeColor=#788AA3;fontColor=#46495D;" parent="jsvnlrjWWTkFHVT1R_TK-44" vertex="1">
          <mxGeometry x="30" width="160" height="40" as="geometry">
            <mxRectangle width="160" height="40" as="alternateBounds" />
          </mxGeometry>
        </mxCell>
        <mxCell id="jsvnlrjWWTkFHVT1R_TK-62" value="" style="shape=tableRow;horizontal=0;startSize=0;swimlaneHead=0;swimlaneBody=0;fillColor=none;collapsible=0;dropTarget=0;points=[[0,0.5],[1,0.5]];portConstraint=eastwest;top=0;left=0;right=0;bottom=0;rounded=1;labelBackgroundColor=none;strokeColor=#788AA3;fontColor=#46495D;" parent="VUji3Fqrfajs4CVE4JuU-62" vertex="1">
          <mxGeometry y="250" width="190" height="40" as="geometry" />
        </mxCell>
        <mxCell id="jsvnlrjWWTkFHVT1R_TK-63" value="" style="shape=partialRectangle;connectable=0;fillColor=none;top=0;left=0;bottom=0;right=0;editable=1;overflow=hidden;whiteSpace=wrap;html=1;rounded=1;labelBackgroundColor=none;strokeColor=#788AA3;fontColor=#46495D;" parent="jsvnlrjWWTkFHVT1R_TK-62" vertex="1">
          <mxGeometry width="30" height="40" as="geometry">
            <mxRectangle width="30" height="40" as="alternateBounds" />
          </mxGeometry>
        </mxCell>
        <mxCell id="jsvnlrjWWTkFHVT1R_TK-64" value="deleted_at:&amp;nbsp;&lt;b style=&quot;border-color: var(--border-color);&quot;&gt;timestamp()&lt;/b&gt;" style="shape=partialRectangle;connectable=0;fillColor=none;top=0;left=0;bottom=0;right=0;align=left;spacingLeft=6;overflow=hidden;whiteSpace=wrap;html=1;rounded=1;labelBackgroundColor=none;strokeColor=#788AA3;fontColor=#46495D;" parent="jsvnlrjWWTkFHVT1R_TK-62" vertex="1">
          <mxGeometry x="30" width="160" height="40" as="geometry">
            <mxRectangle width="160" height="40" as="alternateBounds" />
          </mxGeometry>
        </mxCell>
        <mxCell id="VUji3Fqrfajs4CVE4JuU-75" value="Ulasan" style="shape=table;startSize=30;container=1;collapsible=1;childLayout=tableLayout;fixedRows=1;rowLines=0;fontStyle=1;align=center;resizeLast=1;html=1;rounded=1;labelBackgroundColor=none;fillColor=#B2C9AB;strokeColor=#788AA3;fontColor=#46495D;" parent="1" vertex="1">
          <mxGeometry x="590" y="167" width="220" height="330" as="geometry" />
        </mxCell>
        <mxCell id="VUji3Fqrfajs4CVE4JuU-76" value="" style="shape=tableRow;horizontal=0;startSize=0;swimlaneHead=0;swimlaneBody=0;fillColor=none;collapsible=0;dropTarget=0;points=[[0,0.5],[1,0.5]];portConstraint=eastwest;top=0;left=0;right=0;bottom=1;rounded=1;labelBackgroundColor=none;strokeColor=#788AA3;fontColor=#46495D;" parent="VUji3Fqrfajs4CVE4JuU-75" vertex="1">
          <mxGeometry y="30" width="220" height="30" as="geometry" />
        </mxCell>
        <mxCell id="VUji3Fqrfajs4CVE4JuU-77" value="PK" style="shape=partialRectangle;connectable=0;fillColor=none;top=0;left=0;bottom=0;right=0;fontStyle=1;overflow=hidden;whiteSpace=wrap;html=1;rounded=1;labelBackgroundColor=none;strokeColor=#788AA3;fontColor=#46495D;" parent="VUji3Fqrfajs4CVE4JuU-76" vertex="1">
          <mxGeometry width="30" height="30" as="geometry">
            <mxRectangle width="30" height="30" as="alternateBounds" />
          </mxGeometry>
        </mxCell>
        <mxCell id="VUji3Fqrfajs4CVE4JuU-78" value="ulasan_id: bigInt(20)" style="shape=partialRectangle;connectable=0;fillColor=none;top=0;left=0;bottom=0;right=0;align=left;spacingLeft=6;fontStyle=5;overflow=hidden;whiteSpace=wrap;html=1;rounded=1;labelBackgroundColor=none;strokeColor=#788AA3;fontColor=#46495D;" parent="VUji3Fqrfajs4CVE4JuU-76" vertex="1">
          <mxGeometry x="30" width="190" height="30" as="geometry">
            <mxRectangle width="190" height="30" as="alternateBounds" />
          </mxGeometry>
        </mxCell>
        <mxCell id="VUji3Fqrfajs4CVE4JuU-79" value="" style="shape=tableRow;horizontal=0;startSize=0;swimlaneHead=0;swimlaneBody=0;fillColor=none;collapsible=0;dropTarget=0;points=[[0,0.5],[1,0.5]];portConstraint=eastwest;top=0;left=0;right=0;bottom=0;rounded=1;labelBackgroundColor=none;strokeColor=#788AA3;fontColor=#46495D;" parent="VUji3Fqrfajs4CVE4JuU-75" vertex="1">
          <mxGeometry y="60" width="220" height="30" as="geometry" />
        </mxCell>
        <mxCell id="VUji3Fqrfajs4CVE4JuU-80" value="FK" style="shape=partialRectangle;connectable=0;fillColor=none;top=0;left=0;bottom=0;right=0;editable=1;overflow=hidden;whiteSpace=wrap;html=1;rounded=1;labelBackgroundColor=none;strokeColor=#788AA3;fontColor=#46495D;" parent="VUji3Fqrfajs4CVE4JuU-79" vertex="1">
          <mxGeometry width="30" height="30" as="geometry">
            <mxRectangle width="30" height="30" as="alternateBounds" />
          </mxGeometry>
        </mxCell>
        <mxCell id="VUji3Fqrfajs4CVE4JuU-81" value="user_id: &lt;b&gt;bigInt(20)&lt;/b&gt;" style="shape=partialRectangle;connectable=0;fillColor=none;top=0;left=0;bottom=0;right=0;align=left;spacingLeft=6;overflow=hidden;whiteSpace=wrap;html=1;rounded=1;labelBackgroundColor=none;strokeColor=#788AA3;fontColor=#46495D;" parent="VUji3Fqrfajs4CVE4JuU-79" vertex="1">
          <mxGeometry x="30" width="190" height="30" as="geometry">
            <mxRectangle width="190" height="30" as="alternateBounds" />
          </mxGeometry>
        </mxCell>
        <mxCell id="VUji3Fqrfajs4CVE4JuU-82" value="" style="shape=tableRow;horizontal=0;startSize=0;swimlaneHead=0;swimlaneBody=0;fillColor=none;collapsible=0;dropTarget=0;points=[[0,0.5],[1,0.5]];portConstraint=eastwest;top=0;left=0;right=0;bottom=0;rounded=1;labelBackgroundColor=none;strokeColor=#788AA3;fontColor=#46495D;" parent="VUji3Fqrfajs4CVE4JuU-75" vertex="1">
          <mxGeometry y="90" width="220" height="30" as="geometry" />
        </mxCell>
        <mxCell id="VUji3Fqrfajs4CVE4JuU-83" value="FK" style="shape=partialRectangle;connectable=0;fillColor=none;top=0;left=0;bottom=0;right=0;editable=1;overflow=hidden;whiteSpace=wrap;html=1;rounded=1;labelBackgroundColor=none;strokeColor=#788AA3;fontColor=#46495D;" parent="VUji3Fqrfajs4CVE4JuU-82" vertex="1">
          <mxGeometry width="30" height="30" as="geometry">
            <mxRectangle width="30" height="30" as="alternateBounds" />
          </mxGeometry>
        </mxCell>
        <mxCell id="VUji3Fqrfajs4CVE4JuU-84" value="buku_id: &lt;b&gt;bigInt(20)&lt;/b&gt;" style="shape=partialRectangle;connectable=0;fillColor=none;top=0;left=0;bottom=0;right=0;align=left;spacingLeft=6;overflow=hidden;whiteSpace=wrap;html=1;rounded=1;labelBackgroundColor=none;strokeColor=#788AA3;fontColor=#46495D;" parent="VUji3Fqrfajs4CVE4JuU-82" vertex="1">
          <mxGeometry x="30" width="190" height="30" as="geometry">
            <mxRectangle width="190" height="30" as="alternateBounds" />
          </mxGeometry>
        </mxCell>
        <mxCell id="VUji3Fqrfajs4CVE4JuU-85" value="" style="shape=tableRow;horizontal=0;startSize=0;swimlaneHead=0;swimlaneBody=0;fillColor=none;collapsible=0;dropTarget=0;points=[[0,0.5],[1,0.5]];portConstraint=eastwest;top=0;left=0;right=0;bottom=0;rounded=1;labelBackgroundColor=none;strokeColor=#788AA3;fontColor=#46495D;" parent="VUji3Fqrfajs4CVE4JuU-75" vertex="1">
          <mxGeometry y="120" width="220" height="30" as="geometry" />
        </mxCell>
        <mxCell id="VUji3Fqrfajs4CVE4JuU-86" value="" style="shape=partialRectangle;connectable=0;fillColor=none;top=0;left=0;bottom=0;right=0;editable=1;overflow=hidden;whiteSpace=wrap;html=1;rounded=1;labelBackgroundColor=none;strokeColor=#788AA3;fontColor=#46495D;" parent="VUji3Fqrfajs4CVE4JuU-85" vertex="1">
          <mxGeometry width="30" height="30" as="geometry">
            <mxRectangle width="30" height="30" as="alternateBounds" />
          </mxGeometry>
        </mxCell>
        <mxCell id="VUji3Fqrfajs4CVE4JuU-87" value="ulasan:&amp;nbsp;&lt;b&gt;text&lt;/b&gt;" style="shape=partialRectangle;connectable=0;fillColor=none;top=0;left=0;bottom=0;right=0;align=left;spacingLeft=6;overflow=hidden;whiteSpace=wrap;html=1;rounded=1;labelBackgroundColor=none;strokeColor=#788AA3;fontColor=#46495D;" parent="VUji3Fqrfajs4CVE4JuU-85" vertex="1">
          <mxGeometry x="30" width="190" height="30" as="geometry">
            <mxRectangle width="190" height="30" as="alternateBounds" />
          </mxGeometry>
        </mxCell>
        <mxCell id="u-ZRgJGEgGVV-CXIHLiP-22" value="" style="shape=tableRow;horizontal=0;startSize=0;swimlaneHead=0;swimlaneBody=0;fillColor=none;collapsible=0;dropTarget=0;points=[[0,0.5],[1,0.5]];portConstraint=eastwest;top=0;left=0;right=0;bottom=0;rounded=1;labelBackgroundColor=none;strokeColor=#788AA3;fontColor=#46495D;" parent="VUji3Fqrfajs4CVE4JuU-75" vertex="1">
          <mxGeometry y="150" width="220" height="30" as="geometry" />
        </mxCell>
        <mxCell id="u-ZRgJGEgGVV-CXIHLiP-23" value="" style="shape=partialRectangle;connectable=0;fillColor=none;top=0;left=0;bottom=0;right=0;editable=1;overflow=hidden;whiteSpace=wrap;html=1;rounded=1;labelBackgroundColor=none;strokeColor=#788AA3;fontColor=#46495D;" parent="u-ZRgJGEgGVV-CXIHLiP-22" vertex="1">
          <mxGeometry width="30" height="30" as="geometry">
            <mxRectangle width="30" height="30" as="alternateBounds" />
          </mxGeometry>
        </mxCell>
        <mxCell id="u-ZRgJGEgGVV-CXIHLiP-24" value="foto_ulasan:&amp;nbsp;&lt;b style=&quot;border-color: var(--border-color);&quot;&gt;varchar(225)&lt;/b&gt;" style="shape=partialRectangle;connectable=0;fillColor=none;top=0;left=0;bottom=0;right=0;align=left;spacingLeft=6;overflow=hidden;whiteSpace=wrap;html=1;rounded=1;labelBackgroundColor=none;strokeColor=#788AA3;fontColor=#46495D;" parent="u-ZRgJGEgGVV-CXIHLiP-22" vertex="1">
          <mxGeometry x="30" width="190" height="30" as="geometry">
            <mxRectangle width="190" height="30" as="alternateBounds" />
          </mxGeometry>
        </mxCell>
        <mxCell id="VUji3Fqrfajs4CVE4JuU-88" value="" style="shape=tableRow;horizontal=0;startSize=0;swimlaneHead=0;swimlaneBody=0;fillColor=none;collapsible=0;dropTarget=0;points=[[0,0.5],[1,0.5]];portConstraint=eastwest;top=0;left=0;right=0;bottom=0;rounded=1;labelBackgroundColor=none;strokeColor=#788AA3;fontColor=#46495D;" parent="VUji3Fqrfajs4CVE4JuU-75" vertex="1">
          <mxGeometry y="180" width="220" height="30" as="geometry" />
        </mxCell>
        <mxCell id="VUji3Fqrfajs4CVE4JuU-89" value="" style="shape=partialRectangle;connectable=0;fillColor=none;top=0;left=0;bottom=0;right=0;editable=1;overflow=hidden;whiteSpace=wrap;html=1;rounded=1;labelBackgroundColor=none;strokeColor=#788AA3;fontColor=#46495D;" parent="VUji3Fqrfajs4CVE4JuU-88" vertex="1">
          <mxGeometry width="30" height="30" as="geometry">
            <mxRectangle width="30" height="30" as="alternateBounds" />
          </mxGeometry>
        </mxCell>
        <mxCell id="VUji3Fqrfajs4CVE4JuU-90" value="rating: &lt;b&gt;enum(&#39;1&#39;, &#39;2&#39;, &#39;3&#39;, &#39;4&#39;, &#39;5&#39;)&lt;/b&gt;" style="shape=partialRectangle;connectable=0;fillColor=none;top=0;left=0;bottom=0;right=0;align=left;spacingLeft=6;overflow=hidden;whiteSpace=wrap;html=1;rounded=1;labelBackgroundColor=none;strokeColor=#788AA3;fontColor=#46495D;" parent="VUji3Fqrfajs4CVE4JuU-88" vertex="1">
          <mxGeometry x="30" width="190" height="30" as="geometry">
            <mxRectangle width="190" height="30" as="alternateBounds" />
          </mxGeometry>
        </mxCell>
        <mxCell id="jsvnlrjWWTkFHVT1R_TK-110" value="" style="shape=tableRow;horizontal=0;startSize=0;swimlaneHead=0;swimlaneBody=0;fillColor=none;collapsible=0;dropTarget=0;points=[[0,0.5],[1,0.5]];portConstraint=eastwest;top=0;left=0;right=0;bottom=0;rounded=1;labelBackgroundColor=none;strokeColor=#788AA3;fontColor=#46495D;" parent="VUji3Fqrfajs4CVE4JuU-75" vertex="1">
          <mxGeometry y="210" width="220" height="30" as="geometry" />
        </mxCell>
        <mxCell id="jsvnlrjWWTkFHVT1R_TK-111" value="" style="shape=partialRectangle;connectable=0;fillColor=none;top=0;left=0;bottom=0;right=0;editable=1;overflow=hidden;whiteSpace=wrap;html=1;rounded=1;labelBackgroundColor=none;strokeColor=#788AA3;fontColor=#46495D;" parent="jsvnlrjWWTkFHVT1R_TK-110" vertex="1">
          <mxGeometry width="30" height="30" as="geometry">
            <mxRectangle width="30" height="30" as="alternateBounds" />
          </mxGeometry>
        </mxCell>
        <mxCell id="jsvnlrjWWTkFHVT1R_TK-112" value="slug :&amp;nbsp;&lt;b style=&quot;border-color: var(--border-color);&quot;&gt;varchar(255)&lt;/b&gt;" style="shape=partialRectangle;connectable=0;fillColor=none;top=0;left=0;bottom=0;right=0;align=left;spacingLeft=6;overflow=hidden;whiteSpace=wrap;html=1;rounded=1;labelBackgroundColor=none;strokeColor=#788AA3;fontColor=#46495D;" parent="jsvnlrjWWTkFHVT1R_TK-110" vertex="1">
          <mxGeometry x="30" width="190" height="30" as="geometry">
            <mxRectangle width="190" height="30" as="alternateBounds" />
          </mxGeometry>
        </mxCell>
        <mxCell id="jsvnlrjWWTkFHVT1R_TK-113" value="" style="shape=tableRow;horizontal=0;startSize=0;swimlaneHead=0;swimlaneBody=0;fillColor=none;collapsible=0;dropTarget=0;points=[[0,0.5],[1,0.5]];portConstraint=eastwest;top=0;left=0;right=0;bottom=0;rounded=1;labelBackgroundColor=none;strokeColor=#788AA3;fontColor=#46495D;" parent="VUji3Fqrfajs4CVE4JuU-75" vertex="1">
          <mxGeometry y="240" width="220" height="30" as="geometry" />
        </mxCell>
        <mxCell id="jsvnlrjWWTkFHVT1R_TK-114" value="" style="shape=partialRectangle;connectable=0;fillColor=none;top=0;left=0;bottom=0;right=0;editable=1;overflow=hidden;whiteSpace=wrap;html=1;rounded=1;labelBackgroundColor=none;strokeColor=#788AA3;fontColor=#46495D;" parent="jsvnlrjWWTkFHVT1R_TK-113" vertex="1">
          <mxGeometry width="30" height="30" as="geometry">
            <mxRectangle width="30" height="30" as="alternateBounds" />
          </mxGeometry>
        </mxCell>
        <mxCell id="jsvnlrjWWTkFHVT1R_TK-115" value="created_at:&amp;nbsp;&lt;b style=&quot;border-color: var(--border-color);&quot;&gt;timestamp()&lt;/b&gt;" style="shape=partialRectangle;connectable=0;fillColor=none;top=0;left=0;bottom=0;right=0;align=left;spacingLeft=6;overflow=hidden;whiteSpace=wrap;html=1;rounded=1;labelBackgroundColor=none;strokeColor=#788AA3;fontColor=#46495D;" parent="jsvnlrjWWTkFHVT1R_TK-113" vertex="1">
          <mxGeometry x="30" width="190" height="30" as="geometry">
            <mxRectangle width="190" height="30" as="alternateBounds" />
          </mxGeometry>
        </mxCell>
        <mxCell id="jsvnlrjWWTkFHVT1R_TK-116" value="" style="shape=tableRow;horizontal=0;startSize=0;swimlaneHead=0;swimlaneBody=0;fillColor=none;collapsible=0;dropTarget=0;points=[[0,0.5],[1,0.5]];portConstraint=eastwest;top=0;left=0;right=0;bottom=0;rounded=1;labelBackgroundColor=none;strokeColor=#788AA3;fontColor=#46495D;" parent="VUji3Fqrfajs4CVE4JuU-75" vertex="1">
          <mxGeometry y="270" width="220" height="30" as="geometry" />
        </mxCell>
        <mxCell id="jsvnlrjWWTkFHVT1R_TK-117" value="" style="shape=partialRectangle;connectable=0;fillColor=none;top=0;left=0;bottom=0;right=0;editable=1;overflow=hidden;whiteSpace=wrap;html=1;rounded=1;labelBackgroundColor=none;strokeColor=#788AA3;fontColor=#46495D;" parent="jsvnlrjWWTkFHVT1R_TK-116" vertex="1">
          <mxGeometry width="30" height="30" as="geometry">
            <mxRectangle width="30" height="30" as="alternateBounds" />
          </mxGeometry>
        </mxCell>
        <mxCell id="jsvnlrjWWTkFHVT1R_TK-118" value="updated_at:&amp;nbsp;&lt;b style=&quot;border-color: var(--border-color);&quot;&gt;timestamp()&lt;/b&gt;" style="shape=partialRectangle;connectable=0;fillColor=none;top=0;left=0;bottom=0;right=0;align=left;spacingLeft=6;overflow=hidden;whiteSpace=wrap;html=1;rounded=1;labelBackgroundColor=none;strokeColor=#788AA3;fontColor=#46495D;" parent="jsvnlrjWWTkFHVT1R_TK-116" vertex="1">
          <mxGeometry x="30" width="190" height="30" as="geometry">
            <mxRectangle width="190" height="30" as="alternateBounds" />
          </mxGeometry>
        </mxCell>
        <mxCell id="jsvnlrjWWTkFHVT1R_TK-119" value="" style="shape=tableRow;horizontal=0;startSize=0;swimlaneHead=0;swimlaneBody=0;fillColor=none;collapsible=0;dropTarget=0;points=[[0,0.5],[1,0.5]];portConstraint=eastwest;top=0;left=0;right=0;bottom=0;rounded=1;labelBackgroundColor=none;strokeColor=#788AA3;fontColor=#46495D;" parent="VUji3Fqrfajs4CVE4JuU-75" vertex="1">
          <mxGeometry y="300" width="220" height="30" as="geometry" />
        </mxCell>
        <mxCell id="jsvnlrjWWTkFHVT1R_TK-120" value="" style="shape=partialRectangle;connectable=0;fillColor=none;top=0;left=0;bottom=0;right=0;editable=1;overflow=hidden;whiteSpace=wrap;html=1;rounded=1;labelBackgroundColor=none;strokeColor=#788AA3;fontColor=#46495D;" parent="jsvnlrjWWTkFHVT1R_TK-119" vertex="1">
          <mxGeometry width="30" height="30" as="geometry">
            <mxRectangle width="30" height="30" as="alternateBounds" />
          </mxGeometry>
        </mxCell>
        <mxCell id="jsvnlrjWWTkFHVT1R_TK-121" value="deleted_at:&amp;nbsp;&lt;b style=&quot;border-color: var(--border-color);&quot;&gt;timestamp()&lt;/b&gt;" style="shape=partialRectangle;connectable=0;fillColor=none;top=0;left=0;bottom=0;right=0;align=left;spacingLeft=6;overflow=hidden;whiteSpace=wrap;html=1;rounded=1;labelBackgroundColor=none;strokeColor=#788AA3;fontColor=#46495D;" parent="jsvnlrjWWTkFHVT1R_TK-119" vertex="1">
          <mxGeometry x="30" width="190" height="30" as="geometry">
            <mxRectangle width="190" height="30" as="alternateBounds" />
          </mxGeometry>
        </mxCell>
        <mxCell id="VUji3Fqrfajs4CVE4JuU-91" value="Peminjaman" style="shape=table;startSize=30;container=1;collapsible=1;childLayout=tableLayout;fixedRows=1;rowLines=0;fontStyle=1;align=center;resizeLast=1;html=1;rounded=1;labelBackgroundColor=none;fillColor=#B2C9AB;strokeColor=#788AA3;fontColor=#46495D;" parent="1" vertex="1">
          <mxGeometry x="150" y="127" width="340" height="450" as="geometry" />
        </mxCell>
        <mxCell id="VUji3Fqrfajs4CVE4JuU-92" value="" style="shape=tableRow;horizontal=0;startSize=0;swimlaneHead=0;swimlaneBody=0;fillColor=none;collapsible=0;dropTarget=0;points=[[0,0.5],[1,0.5]];portConstraint=eastwest;top=0;left=0;right=0;bottom=1;rounded=1;labelBackgroundColor=none;strokeColor=#788AA3;fontColor=#46495D;" parent="VUji3Fqrfajs4CVE4JuU-91" vertex="1">
          <mxGeometry y="30" width="340" height="30" as="geometry" />
        </mxCell>
        <mxCell id="VUji3Fqrfajs4CVE4JuU-93" value="PK" style="shape=partialRectangle;connectable=0;fillColor=none;top=0;left=0;bottom=0;right=0;fontStyle=1;overflow=hidden;whiteSpace=wrap;html=1;rounded=1;labelBackgroundColor=none;strokeColor=#788AA3;fontColor=#46495D;" parent="VUji3Fqrfajs4CVE4JuU-92" vertex="1">
          <mxGeometry width="30" height="30" as="geometry">
            <mxRectangle width="30" height="30" as="alternateBounds" />
          </mxGeometry>
        </mxCell>
        <mxCell id="VUji3Fqrfajs4CVE4JuU-94" value="peminjaman_id: bigInt(20)" style="shape=partialRectangle;connectable=0;fillColor=none;top=0;left=0;bottom=0;right=0;align=left;spacingLeft=6;fontStyle=5;overflow=hidden;whiteSpace=wrap;html=1;rounded=1;labelBackgroundColor=none;strokeColor=#788AA3;fontColor=#46495D;" parent="VUji3Fqrfajs4CVE4JuU-92" vertex="1">
          <mxGeometry x="30" width="310" height="30" as="geometry">
            <mxRectangle width="310" height="30" as="alternateBounds" />
          </mxGeometry>
        </mxCell>
        <mxCell id="VUji3Fqrfajs4CVE4JuU-95" value="" style="shape=tableRow;horizontal=0;startSize=0;swimlaneHead=0;swimlaneBody=0;fillColor=none;collapsible=0;dropTarget=0;points=[[0,0.5],[1,0.5]];portConstraint=eastwest;top=0;left=0;right=0;bottom=0;rounded=1;labelBackgroundColor=none;strokeColor=#788AA3;fontColor=#46495D;" parent="VUji3Fqrfajs4CVE4JuU-91" vertex="1">
          <mxGeometry y="60" width="340" height="30" as="geometry" />
        </mxCell>
        <mxCell id="VUji3Fqrfajs4CVE4JuU-96" value="FK" style="shape=partialRectangle;connectable=0;fillColor=none;top=0;left=0;bottom=0;right=0;editable=1;overflow=hidden;whiteSpace=wrap;html=1;rounded=1;labelBackgroundColor=none;strokeColor=#788AA3;fontColor=#46495D;" parent="VUji3Fqrfajs4CVE4JuU-95" vertex="1">
          <mxGeometry width="30" height="30" as="geometry">
            <mxRectangle width="30" height="30" as="alternateBounds" />
          </mxGeometry>
        </mxCell>
        <mxCell id="VUji3Fqrfajs4CVE4JuU-97" value="user_id: &lt;b&gt;bigInt(20)&lt;/b&gt;" style="shape=partialRectangle;connectable=0;fillColor=none;top=0;left=0;bottom=0;right=0;align=left;spacingLeft=6;overflow=hidden;whiteSpace=wrap;html=1;rounded=1;labelBackgroundColor=none;strokeColor=#788AA3;fontColor=#46495D;" parent="VUji3Fqrfajs4CVE4JuU-95" vertex="1">
          <mxGeometry x="30" width="310" height="30" as="geometry">
            <mxRectangle width="310" height="30" as="alternateBounds" />
          </mxGeometry>
        </mxCell>
        <mxCell id="jsvnlrjWWTkFHVT1R_TK-137" value="" style="shape=tableRow;horizontal=0;startSize=0;swimlaneHead=0;swimlaneBody=0;fillColor=none;collapsible=0;dropTarget=0;points=[[0,0.5],[1,0.5]];portConstraint=eastwest;top=0;left=0;right=0;bottom=0;rounded=1;labelBackgroundColor=none;strokeColor=#788AA3;fontColor=#46495D;" parent="VUji3Fqrfajs4CVE4JuU-91" vertex="1">
          <mxGeometry y="90" width="340" height="30" as="geometry" />
        </mxCell>
        <mxCell id="jsvnlrjWWTkFHVT1R_TK-138" value="FK" style="shape=partialRectangle;connectable=0;fillColor=none;top=0;left=0;bottom=0;right=0;editable=1;overflow=hidden;whiteSpace=wrap;html=1;rounded=1;labelBackgroundColor=none;strokeColor=#788AA3;fontColor=#46495D;" parent="jsvnlrjWWTkFHVT1R_TK-137" vertex="1">
          <mxGeometry width="30" height="30" as="geometry">
            <mxRectangle width="30" height="30" as="alternateBounds" />
          </mxGeometry>
        </mxCell>
        <mxCell id="jsvnlrjWWTkFHVT1R_TK-139" value="buku_id: &lt;b&gt;bigInt(20)&lt;/b&gt;" style="shape=partialRectangle;connectable=0;fillColor=none;top=0;left=0;bottom=0;right=0;align=left;spacingLeft=6;overflow=hidden;whiteSpace=wrap;html=1;rounded=1;labelBackgroundColor=none;strokeColor=#788AA3;fontColor=#46495D;" parent="jsvnlrjWWTkFHVT1R_TK-137" vertex="1">
          <mxGeometry x="30" width="310" height="30" as="geometry">
            <mxRectangle width="310" height="30" as="alternateBounds" />
          </mxGeometry>
        </mxCell>
        <mxCell id="jsvnlrjWWTkFHVT1R_TK-140" value="" style="shape=tableRow;horizontal=0;startSize=0;swimlaneHead=0;swimlaneBody=0;fillColor=none;collapsible=0;dropTarget=0;points=[[0,0.5],[1,0.5]];portConstraint=eastwest;top=0;left=0;right=0;bottom=0;rounded=1;labelBackgroundColor=none;strokeColor=#788AA3;fontColor=#46495D;" parent="VUji3Fqrfajs4CVE4JuU-91" vertex="1">
          <mxGeometry y="120" width="340" height="30" as="geometry" />
        </mxCell>
        <mxCell id="jsvnlrjWWTkFHVT1R_TK-141" value="" style="shape=partialRectangle;connectable=0;fillColor=none;top=0;left=0;bottom=0;right=0;editable=1;overflow=hidden;whiteSpace=wrap;html=1;rounded=1;labelBackgroundColor=none;strokeColor=#788AA3;fontColor=#46495D;" parent="jsvnlrjWWTkFHVT1R_TK-140" vertex="1">
          <mxGeometry width="30" height="30" as="geometry">
            <mxRectangle width="30" height="30" as="alternateBounds" />
          </mxGeometry>
        </mxCell>
        <mxCell id="jsvnlrjWWTkFHVT1R_TK-142" value="tanggal_pinjam:&amp;nbsp;&lt;b style=&quot;border-color: var(--border-color);&quot;&gt;date&lt;/b&gt;" style="shape=partialRectangle;connectable=0;fillColor=none;top=0;left=0;bottom=0;right=0;align=left;spacingLeft=6;overflow=hidden;whiteSpace=wrap;html=1;rounded=1;labelBackgroundColor=none;strokeColor=#788AA3;fontColor=#46495D;" parent="jsvnlrjWWTkFHVT1R_TK-140" vertex="1">
          <mxGeometry x="30" width="310" height="30" as="geometry">
            <mxRectangle width="310" height="30" as="alternateBounds" />
          </mxGeometry>
        </mxCell>
        <mxCell id="jsvnlrjWWTkFHVT1R_TK-143" value="" style="shape=tableRow;horizontal=0;startSize=0;swimlaneHead=0;swimlaneBody=0;fillColor=none;collapsible=0;dropTarget=0;points=[[0,0.5],[1,0.5]];portConstraint=eastwest;top=0;left=0;right=0;bottom=0;rounded=1;labelBackgroundColor=none;strokeColor=#788AA3;fontColor=#46495D;" parent="VUji3Fqrfajs4CVE4JuU-91" vertex="1">
          <mxGeometry y="150" width="340" height="30" as="geometry" />
        </mxCell>
        <mxCell id="jsvnlrjWWTkFHVT1R_TK-144" value="" style="shape=partialRectangle;connectable=0;fillColor=none;top=0;left=0;bottom=0;right=0;editable=1;overflow=hidden;whiteSpace=wrap;html=1;rounded=1;labelBackgroundColor=none;strokeColor=#788AA3;fontColor=#46495D;" parent="jsvnlrjWWTkFHVT1R_TK-143" vertex="1">
          <mxGeometry width="30" height="30" as="geometry">
            <mxRectangle width="30" height="30" as="alternateBounds" />
          </mxGeometry>
        </mxCell>
        <mxCell id="jsvnlrjWWTkFHVT1R_TK-145" value="tanggal_kembali:&amp;nbsp;&lt;b style=&quot;border-color: var(--border-color);&quot;&gt;date&lt;/b&gt;" style="shape=partialRectangle;connectable=0;fillColor=none;top=0;left=0;bottom=0;right=0;align=left;spacingLeft=6;overflow=hidden;whiteSpace=wrap;html=1;rounded=1;labelBackgroundColor=none;strokeColor=#788AA3;fontColor=#46495D;" parent="jsvnlrjWWTkFHVT1R_TK-143" vertex="1">
          <mxGeometry x="30" width="310" height="30" as="geometry">
            <mxRectangle width="310" height="30" as="alternateBounds" />
          </mxGeometry>
        </mxCell>
        <mxCell id="jsvnlrjWWTkFHVT1R_TK-146" value="" style="shape=tableRow;horizontal=0;startSize=0;swimlaneHead=0;swimlaneBody=0;fillColor=none;collapsible=0;dropTarget=0;points=[[0,0.5],[1,0.5]];portConstraint=eastwest;top=0;left=0;right=0;bottom=0;rounded=1;labelBackgroundColor=none;strokeColor=#788AA3;fontColor=#46495D;" parent="VUji3Fqrfajs4CVE4JuU-91" vertex="1">
          <mxGeometry y="180" width="340" height="30" as="geometry" />
        </mxCell>
        <mxCell id="jsvnlrjWWTkFHVT1R_TK-147" value="" style="shape=partialRectangle;connectable=0;fillColor=none;top=0;left=0;bottom=0;right=0;editable=1;overflow=hidden;whiteSpace=wrap;html=1;rounded=1;labelBackgroundColor=none;strokeColor=#788AA3;fontColor=#46495D;" parent="jsvnlrjWWTkFHVT1R_TK-146" vertex="1">
          <mxGeometry width="30" height="30" as="geometry">
            <mxRectangle width="30" height="30" as="alternateBounds" />
          </mxGeometry>
        </mxCell>
        <mxCell id="jsvnlrjWWTkFHVT1R_TK-148" value="tanggal_kembali_fisik:&amp;nbsp;&lt;b style=&quot;border-color: var(--border-color);&quot;&gt;date&lt;/b&gt;" style="shape=partialRectangle;connectable=0;fillColor=none;top=0;left=0;bottom=0;right=0;align=left;spacingLeft=6;overflow=hidden;whiteSpace=wrap;html=1;rounded=1;labelBackgroundColor=none;strokeColor=#788AA3;fontColor=#46495D;" parent="jsvnlrjWWTkFHVT1R_TK-146" vertex="1">
          <mxGeometry x="30" width="310" height="30" as="geometry">
            <mxRectangle width="310" height="30" as="alternateBounds" />
          </mxGeometry>
        </mxCell>
        <mxCell id="jsvnlrjWWTkFHVT1R_TK-149" value="" style="shape=tableRow;horizontal=0;startSize=0;swimlaneHead=0;swimlaneBody=0;fillColor=none;collapsible=0;dropTarget=0;points=[[0,0.5],[1,0.5]];portConstraint=eastwest;top=0;left=0;right=0;bottom=0;rounded=1;labelBackgroundColor=none;strokeColor=#788AA3;fontColor=#46495D;" parent="VUji3Fqrfajs4CVE4JuU-91" vertex="1">
          <mxGeometry y="210" width="340" height="30" as="geometry" />
        </mxCell>
        <mxCell id="jsvnlrjWWTkFHVT1R_TK-150" value="" style="shape=partialRectangle;connectable=0;fillColor=none;top=0;left=0;bottom=0;right=0;editable=1;overflow=hidden;whiteSpace=wrap;html=1;rounded=1;labelBackgroundColor=none;strokeColor=#788AA3;fontColor=#46495D;" parent="jsvnlrjWWTkFHVT1R_TK-149" vertex="1">
          <mxGeometry width="30" height="30" as="geometry">
            <mxRectangle width="30" height="30" as="alternateBounds" />
          </mxGeometry>
        </mxCell>
        <mxCell id="jsvnlrjWWTkFHVT1R_TK-151" value="jumlah_pinjam: &lt;b&gt;int&lt;/b&gt;" style="shape=partialRectangle;connectable=0;fillColor=none;top=0;left=0;bottom=0;right=0;align=left;spacingLeft=6;overflow=hidden;whiteSpace=wrap;html=1;rounded=1;labelBackgroundColor=none;strokeColor=#788AA3;fontColor=#46495D;" parent="jsvnlrjWWTkFHVT1R_TK-149" vertex="1">
          <mxGeometry x="30" width="310" height="30" as="geometry">
            <mxRectangle width="310" height="30" as="alternateBounds" />
          </mxGeometry>
        </mxCell>
        <mxCell id="jsvnlrjWWTkFHVT1R_TK-152" value="" style="shape=tableRow;horizontal=0;startSize=0;swimlaneHead=0;swimlaneBody=0;fillColor=none;collapsible=0;dropTarget=0;points=[[0,0.5],[1,0.5]];portConstraint=eastwest;top=0;left=0;right=0;bottom=0;rounded=1;labelBackgroundColor=none;strokeColor=#788AA3;fontColor=#46495D;" parent="VUji3Fqrfajs4CVE4JuU-91" vertex="1">
          <mxGeometry y="240" width="340" height="30" as="geometry" />
        </mxCell>
        <mxCell id="jsvnlrjWWTkFHVT1R_TK-153" value="" style="shape=partialRectangle;connectable=0;fillColor=none;top=0;left=0;bottom=0;right=0;editable=1;overflow=hidden;whiteSpace=wrap;html=1;rounded=1;labelBackgroundColor=none;strokeColor=#788AA3;fontColor=#46495D;" parent="jsvnlrjWWTkFHVT1R_TK-152" vertex="1">
          <mxGeometry width="30" height="30" as="geometry">
            <mxRectangle width="30" height="30" as="alternateBounds" />
          </mxGeometry>
        </mxCell>
        <mxCell id="jsvnlrjWWTkFHVT1R_TK-154" value="status:&amp;nbsp;&lt;b style=&quot;border-color: var(--border-color);&quot;&gt;status(&#39;dipinjam&#39;, &#39;dikembalikan&#39;, &#39;terlambat&#39;)&lt;/b&gt;" style="shape=partialRectangle;connectable=0;fillColor=none;top=0;left=0;bottom=0;right=0;align=left;spacingLeft=6;overflow=hidden;whiteSpace=wrap;html=1;rounded=1;labelBackgroundColor=none;strokeColor=#788AA3;fontColor=#46495D;" parent="jsvnlrjWWTkFHVT1R_TK-152" vertex="1">
          <mxGeometry x="30" width="310" height="30" as="geometry">
            <mxRectangle width="310" height="30" as="alternateBounds" />
          </mxGeometry>
        </mxCell>
        <mxCell id="jsvnlrjWWTkFHVT1R_TK-155" value="" style="shape=tableRow;horizontal=0;startSize=0;swimlaneHead=0;swimlaneBody=0;fillColor=none;collapsible=0;dropTarget=0;points=[[0,0.5],[1,0.5]];portConstraint=eastwest;top=0;left=0;right=0;bottom=0;rounded=1;labelBackgroundColor=none;strokeColor=#788AA3;fontColor=#46495D;" parent="VUji3Fqrfajs4CVE4JuU-91" vertex="1">
          <mxGeometry y="270" width="340" height="30" as="geometry" />
        </mxCell>
        <mxCell id="jsvnlrjWWTkFHVT1R_TK-156" value="" style="shape=partialRectangle;connectable=0;fillColor=none;top=0;left=0;bottom=0;right=0;editable=1;overflow=hidden;whiteSpace=wrap;html=1;rounded=1;labelBackgroundColor=none;strokeColor=#788AA3;fontColor=#46495D;" parent="jsvnlrjWWTkFHVT1R_TK-155" vertex="1">
          <mxGeometry width="30" height="30" as="geometry">
            <mxRectangle width="30" height="30" as="alternateBounds" />
          </mxGeometry>
        </mxCell>
        <mxCell id="jsvnlrjWWTkFHVT1R_TK-157" value="slug :&amp;nbsp;&lt;b style=&quot;border-color: var(--border-color);&quot;&gt;varchar(255)&lt;/b&gt;" style="shape=partialRectangle;connectable=0;fillColor=none;top=0;left=0;bottom=0;right=0;align=left;spacingLeft=6;overflow=hidden;whiteSpace=wrap;html=1;rounded=1;labelBackgroundColor=none;strokeColor=#788AA3;fontColor=#46495D;" parent="jsvnlrjWWTkFHVT1R_TK-155" vertex="1">
          <mxGeometry x="30" width="310" height="30" as="geometry">
            <mxRectangle width="310" height="30" as="alternateBounds" />
          </mxGeometry>
        </mxCell>
        <mxCell id="jsvnlrjWWTkFHVT1R_TK-158" value="" style="shape=tableRow;horizontal=0;startSize=0;swimlaneHead=0;swimlaneBody=0;fillColor=none;collapsible=0;dropTarget=0;points=[[0,0.5],[1,0.5]];portConstraint=eastwest;top=0;left=0;right=0;bottom=0;rounded=1;labelBackgroundColor=none;strokeColor=#788AA3;fontColor=#46495D;" parent="VUji3Fqrfajs4CVE4JuU-91" vertex="1">
          <mxGeometry y="300" width="340" height="30" as="geometry" />
        </mxCell>
        <mxCell id="jsvnlrjWWTkFHVT1R_TK-159" value="" style="shape=partialRectangle;connectable=0;fillColor=none;top=0;left=0;bottom=0;right=0;editable=1;overflow=hidden;whiteSpace=wrap;html=1;rounded=1;labelBackgroundColor=none;strokeColor=#788AA3;fontColor=#46495D;" parent="jsvnlrjWWTkFHVT1R_TK-158" vertex="1">
          <mxGeometry width="30" height="30" as="geometry">
            <mxRectangle width="30" height="30" as="alternateBounds" />
          </mxGeometry>
        </mxCell>
        <mxCell id="jsvnlrjWWTkFHVT1R_TK-160" value="created_by:&amp;nbsp;&lt;b style=&quot;border-color: var(--border-color);&quot;&gt;bint()&lt;/b&gt;" style="shape=partialRectangle;connectable=0;fillColor=none;top=0;left=0;bottom=0;right=0;align=left;spacingLeft=6;overflow=hidden;whiteSpace=wrap;html=1;rounded=1;labelBackgroundColor=none;strokeColor=#788AA3;fontColor=#46495D;" parent="jsvnlrjWWTkFHVT1R_TK-158" vertex="1">
          <mxGeometry x="30" width="310" height="30" as="geometry">
            <mxRectangle width="310" height="30" as="alternateBounds" />
          </mxGeometry>
        </mxCell>
        <mxCell id="jsvnlrjWWTkFHVT1R_TK-161" value="" style="shape=tableRow;horizontal=0;startSize=0;swimlaneHead=0;swimlaneBody=0;fillColor=none;collapsible=0;dropTarget=0;points=[[0,0.5],[1,0.5]];portConstraint=eastwest;top=0;left=0;right=0;bottom=0;rounded=1;labelBackgroundColor=none;strokeColor=#788AA3;fontColor=#46495D;" parent="VUji3Fqrfajs4CVE4JuU-91" vertex="1">
          <mxGeometry y="330" width="340" height="30" as="geometry" />
        </mxCell>
        <mxCell id="jsvnlrjWWTkFHVT1R_TK-162" value="" style="shape=partialRectangle;connectable=0;fillColor=none;top=0;left=0;bottom=0;right=0;editable=1;overflow=hidden;whiteSpace=wrap;html=1;rounded=1;labelBackgroundColor=none;strokeColor=#788AA3;fontColor=#46495D;" parent="jsvnlrjWWTkFHVT1R_TK-161" vertex="1">
          <mxGeometry width="30" height="30" as="geometry">
            <mxRectangle width="30" height="30" as="alternateBounds" />
          </mxGeometry>
        </mxCell>
        <mxCell id="jsvnlrjWWTkFHVT1R_TK-163" value="updated_by:&amp;nbsp;&lt;b style=&quot;border-color: var(--border-color);&quot;&gt;bint()&lt;/b&gt;" style="shape=partialRectangle;connectable=0;fillColor=none;top=0;left=0;bottom=0;right=0;align=left;spacingLeft=6;overflow=hidden;whiteSpace=wrap;html=1;rounded=1;labelBackgroundColor=none;strokeColor=#788AA3;fontColor=#46495D;" parent="jsvnlrjWWTkFHVT1R_TK-161" vertex="1">
          <mxGeometry x="30" width="310" height="30" as="geometry">
            <mxRectangle width="310" height="30" as="alternateBounds" />
          </mxGeometry>
        </mxCell>
        <mxCell id="jsvnlrjWWTkFHVT1R_TK-164" value="" style="shape=tableRow;horizontal=0;startSize=0;swimlaneHead=0;swimlaneBody=0;fillColor=none;collapsible=0;dropTarget=0;points=[[0,0.5],[1,0.5]];portConstraint=eastwest;top=0;left=0;right=0;bottom=0;rounded=1;labelBackgroundColor=none;strokeColor=#788AA3;fontColor=#46495D;" parent="VUji3Fqrfajs4CVE4JuU-91" vertex="1">
          <mxGeometry y="360" width="340" height="30" as="geometry" />
        </mxCell>
        <mxCell id="jsvnlrjWWTkFHVT1R_TK-165" value="" style="shape=partialRectangle;connectable=0;fillColor=none;top=0;left=0;bottom=0;right=0;editable=1;overflow=hidden;whiteSpace=wrap;html=1;rounded=1;labelBackgroundColor=none;strokeColor=#788AA3;fontColor=#46495D;" parent="jsvnlrjWWTkFHVT1R_TK-164" vertex="1">
          <mxGeometry width="30" height="30" as="geometry">
            <mxRectangle width="30" height="30" as="alternateBounds" />
          </mxGeometry>
        </mxCell>
        <mxCell id="jsvnlrjWWTkFHVT1R_TK-166" value="created_at:&amp;nbsp;&lt;b style=&quot;border-color: var(--border-color);&quot;&gt;timestamp()&lt;/b&gt;" style="shape=partialRectangle;connectable=0;fillColor=none;top=0;left=0;bottom=0;right=0;align=left;spacingLeft=6;overflow=hidden;whiteSpace=wrap;html=1;rounded=1;labelBackgroundColor=none;strokeColor=#788AA3;fontColor=#46495D;" parent="jsvnlrjWWTkFHVT1R_TK-164" vertex="1">
          <mxGeometry x="30" width="310" height="30" as="geometry">
            <mxRectangle width="310" height="30" as="alternateBounds" />
          </mxGeometry>
        </mxCell>
        <mxCell id="jsvnlrjWWTkFHVT1R_TK-167" value="" style="shape=tableRow;horizontal=0;startSize=0;swimlaneHead=0;swimlaneBody=0;fillColor=none;collapsible=0;dropTarget=0;points=[[0,0.5],[1,0.5]];portConstraint=eastwest;top=0;left=0;right=0;bottom=0;rounded=1;labelBackgroundColor=none;strokeColor=#788AA3;fontColor=#46495D;" parent="VUji3Fqrfajs4CVE4JuU-91" vertex="1">
          <mxGeometry y="390" width="340" height="30" as="geometry" />
        </mxCell>
        <mxCell id="jsvnlrjWWTkFHVT1R_TK-168" value="" style="shape=partialRectangle;connectable=0;fillColor=none;top=0;left=0;bottom=0;right=0;editable=1;overflow=hidden;whiteSpace=wrap;html=1;rounded=1;labelBackgroundColor=none;strokeColor=#788AA3;fontColor=#46495D;" parent="jsvnlrjWWTkFHVT1R_TK-167" vertex="1">
          <mxGeometry width="30" height="30" as="geometry">
            <mxRectangle width="30" height="30" as="alternateBounds" />
          </mxGeometry>
        </mxCell>
        <mxCell id="jsvnlrjWWTkFHVT1R_TK-169" value="updated_at:&amp;nbsp;&lt;b style=&quot;border-color: var(--border-color);&quot;&gt;timestamp()&lt;/b&gt;" style="shape=partialRectangle;connectable=0;fillColor=none;top=0;left=0;bottom=0;right=0;align=left;spacingLeft=6;overflow=hidden;whiteSpace=wrap;html=1;rounded=1;labelBackgroundColor=none;strokeColor=#788AA3;fontColor=#46495D;" parent="jsvnlrjWWTkFHVT1R_TK-167" vertex="1">
          <mxGeometry x="30" width="310" height="30" as="geometry">
            <mxRectangle width="310" height="30" as="alternateBounds" />
          </mxGeometry>
        </mxCell>
        <mxCell id="jsvnlrjWWTkFHVT1R_TK-170" value="" style="shape=tableRow;horizontal=0;startSize=0;swimlaneHead=0;swimlaneBody=0;fillColor=none;collapsible=0;dropTarget=0;points=[[0,0.5],[1,0.5]];portConstraint=eastwest;top=0;left=0;right=0;bottom=0;rounded=1;labelBackgroundColor=none;strokeColor=#788AA3;fontColor=#46495D;" parent="VUji3Fqrfajs4CVE4JuU-91" vertex="1">
          <mxGeometry y="420" width="340" height="30" as="geometry" />
        </mxCell>
        <mxCell id="jsvnlrjWWTkFHVT1R_TK-171" value="" style="shape=partialRectangle;connectable=0;fillColor=none;top=0;left=0;bottom=0;right=0;editable=1;overflow=hidden;whiteSpace=wrap;html=1;rounded=1;labelBackgroundColor=none;strokeColor=#788AA3;fontColor=#46495D;" parent="jsvnlrjWWTkFHVT1R_TK-170" vertex="1">
          <mxGeometry width="30" height="30" as="geometry">
            <mxRectangle width="30" height="30" as="alternateBounds" />
          </mxGeometry>
        </mxCell>
        <mxCell id="jsvnlrjWWTkFHVT1R_TK-172" value="deleted_at:&amp;nbsp;&lt;b style=&quot;border-color: var(--border-color);&quot;&gt;timestamp()&lt;/b&gt;" style="shape=partialRectangle;connectable=0;fillColor=none;top=0;left=0;bottom=0;right=0;align=left;spacingLeft=6;overflow=hidden;whiteSpace=wrap;html=1;rounded=1;labelBackgroundColor=none;strokeColor=#788AA3;fontColor=#46495D;" parent="jsvnlrjWWTkFHVT1R_TK-170" vertex="1">
          <mxGeometry x="30" width="310" height="30" as="geometry">
            <mxRectangle width="310" height="30" as="alternateBounds" />
          </mxGeometry>
        </mxCell>
        <mxCell id="VUji3Fqrfajs4CVE4JuU-111" value="" style="edgeStyle=entityRelationEdgeStyle;fontSize=12;html=1;endArrow=ERoneToMany;rounded=1;labelBackgroundColor=none;fontColor=default;strokeColor=#788AA3;" parent="1" source="VUji3Fqrfajs4CVE4JuU-2" target="VUji3Fqrfajs4CVE4JuU-79" edge="1">
          <mxGeometry width="100" height="100" relative="1" as="geometry">
            <mxPoint x="770" y="347" as="sourcePoint" />
            <mxPoint x="870" y="247" as="targetPoint" />
          </mxGeometry>
        </mxCell>
        <mxCell id="VUji3Fqrfajs4CVE4JuU-112" value="" style="edgeStyle=entityRelationEdgeStyle;fontSize=12;html=1;endArrow=ERoneToMany;rounded=1;labelBackgroundColor=none;fontColor=default;strokeColor=#788AA3;" parent="1" source="VUji3Fqrfajs4CVE4JuU-31" target="VUji3Fqrfajs4CVE4JuU-82" edge="1">
          <mxGeometry width="100" height="100" relative="1" as="geometry">
            <mxPoint x="770" y="347" as="sourcePoint" />
            <mxPoint x="870" y="247" as="targetPoint" />
          </mxGeometry>
        </mxCell>
        <mxCell id="yR3BL-ynLd47crQW9BLM-6" value="Kategori" style="shape=table;startSize=30;container=1;collapsible=1;childLayout=tableLayout;fixedRows=1;rowLines=0;fontStyle=1;align=center;resizeLast=1;html=1;rounded=1;labelBackgroundColor=none;fillColor=#B2C9AB;strokeColor=#788AA3;fontColor=#46495D;" parent="1" vertex="1">
          <mxGeometry x="1150" y="777" width="210" height="270" as="geometry" />
        </mxCell>
        <mxCell id="yR3BL-ynLd47crQW9BLM-7" value="" style="shape=tableRow;horizontal=0;startSize=0;swimlaneHead=0;swimlaneBody=0;fillColor=none;collapsible=0;dropTarget=0;points=[[0,0.5],[1,0.5]];portConstraint=eastwest;top=0;left=0;right=0;bottom=1;rounded=1;labelBackgroundColor=none;strokeColor=#788AA3;fontColor=#46495D;" parent="yR3BL-ynLd47crQW9BLM-6" vertex="1">
          <mxGeometry y="30" width="210" height="30" as="geometry" />
        </mxCell>
        <mxCell id="yR3BL-ynLd47crQW9BLM-8" value="PK" style="shape=partialRectangle;connectable=0;fillColor=none;top=0;left=0;bottom=0;right=0;fontStyle=1;overflow=hidden;whiteSpace=wrap;html=1;rounded=1;labelBackgroundColor=none;strokeColor=#788AA3;fontColor=#46495D;" parent="yR3BL-ynLd47crQW9BLM-7" vertex="1">
          <mxGeometry width="30" height="30" as="geometry">
            <mxRectangle width="30" height="30" as="alternateBounds" />
          </mxGeometry>
        </mxCell>
        <mxCell id="yR3BL-ynLd47crQW9BLM-9" value="kategori_id: bigInt(20)" style="shape=partialRectangle;connectable=0;fillColor=none;top=0;left=0;bottom=0;right=0;align=left;spacingLeft=6;fontStyle=5;overflow=hidden;whiteSpace=wrap;html=1;rounded=1;labelBackgroundColor=none;strokeColor=#788AA3;fontColor=#46495D;" parent="yR3BL-ynLd47crQW9BLM-7" vertex="1">
          <mxGeometry x="30" width="180" height="30" as="geometry">
            <mxRectangle width="180" height="30" as="alternateBounds" />
          </mxGeometry>
        </mxCell>
        <mxCell id="yR3BL-ynLd47crQW9BLM-10" value="" style="shape=tableRow;horizontal=0;startSize=0;swimlaneHead=0;swimlaneBody=0;fillColor=none;collapsible=0;dropTarget=0;points=[[0,0.5],[1,0.5]];portConstraint=eastwest;top=0;left=0;right=0;bottom=0;rounded=1;labelBackgroundColor=none;strokeColor=#788AA3;fontColor=#46495D;" parent="yR3BL-ynLd47crQW9BLM-6" vertex="1">
          <mxGeometry y="60" width="210" height="30" as="geometry" />
        </mxCell>
        <mxCell id="yR3BL-ynLd47crQW9BLM-11" value="" style="shape=partialRectangle;connectable=0;fillColor=none;top=0;left=0;bottom=0;right=0;editable=1;overflow=hidden;whiteSpace=wrap;html=1;rounded=1;labelBackgroundColor=none;strokeColor=#788AA3;fontColor=#46495D;" parent="yR3BL-ynLd47crQW9BLM-10" vertex="1">
          <mxGeometry width="30" height="30" as="geometry">
            <mxRectangle width="30" height="30" as="alternateBounds" />
          </mxGeometry>
        </mxCell>
        <mxCell id="yR3BL-ynLd47crQW9BLM-12" value="slug:&amp;nbsp;&lt;b style=&quot;border-color: var(--border-color);&quot;&gt;varchar(255)&lt;/b&gt;" style="shape=partialRectangle;connectable=0;fillColor=none;top=0;left=0;bottom=0;right=0;align=left;spacingLeft=6;overflow=hidden;whiteSpace=wrap;html=1;rounded=1;labelBackgroundColor=none;strokeColor=#788AA3;fontColor=#46495D;" parent="yR3BL-ynLd47crQW9BLM-10" vertex="1">
          <mxGeometry x="30" width="180" height="30" as="geometry">
            <mxRectangle width="180" height="30" as="alternateBounds" />
          </mxGeometry>
        </mxCell>
        <mxCell id="8P4Izcxl7sAH3ZRfBzEM-1" value="" style="shape=tableRow;horizontal=0;startSize=0;swimlaneHead=0;swimlaneBody=0;fillColor=none;collapsible=0;dropTarget=0;points=[[0,0.5],[1,0.5]];portConstraint=eastwest;top=0;left=0;right=0;bottom=0;rounded=1;labelBackgroundColor=none;strokeColor=#788AA3;fontColor=#46495D;" parent="yR3BL-ynLd47crQW9BLM-6" vertex="1">
          <mxGeometry y="90" width="210" height="30" as="geometry" />
        </mxCell>
        <mxCell id="8P4Izcxl7sAH3ZRfBzEM-2" value="" style="shape=partialRectangle;connectable=0;fillColor=none;top=0;left=0;bottom=0;right=0;editable=1;overflow=hidden;whiteSpace=wrap;html=1;rounded=1;labelBackgroundColor=none;strokeColor=#788AA3;fontColor=#46495D;" parent="8P4Izcxl7sAH3ZRfBzEM-1" vertex="1">
          <mxGeometry width="30" height="30" as="geometry">
            <mxRectangle width="30" height="30" as="alternateBounds" />
          </mxGeometry>
        </mxCell>
        <mxCell id="8P4Izcxl7sAH3ZRfBzEM-3" value="nama_kategori: &lt;b&gt;varchar(50)&lt;/b&gt;" style="shape=partialRectangle;connectable=0;fillColor=none;top=0;left=0;bottom=0;right=0;align=left;spacingLeft=6;overflow=hidden;whiteSpace=wrap;html=1;rounded=1;labelBackgroundColor=none;strokeColor=#788AA3;fontColor=#46495D;" parent="8P4Izcxl7sAH3ZRfBzEM-1" vertex="1">
          <mxGeometry x="30" width="180" height="30" as="geometry">
            <mxRectangle width="180" height="30" as="alternateBounds" />
          </mxGeometry>
        </mxCell>
        <mxCell id="jsvnlrjWWTkFHVT1R_TK-71" value="" style="shape=tableRow;horizontal=0;startSize=0;swimlaneHead=0;swimlaneBody=0;fillColor=none;collapsible=0;dropTarget=0;points=[[0,0.5],[1,0.5]];portConstraint=eastwest;top=0;left=0;right=0;bottom=0;rounded=1;labelBackgroundColor=none;strokeColor=#788AA3;fontColor=#46495D;" parent="yR3BL-ynLd47crQW9BLM-6" vertex="1">
          <mxGeometry y="120" width="210" height="30" as="geometry" />
        </mxCell>
        <mxCell id="jsvnlrjWWTkFHVT1R_TK-72" value="" style="shape=partialRectangle;connectable=0;fillColor=none;top=0;left=0;bottom=0;right=0;editable=1;overflow=hidden;whiteSpace=wrap;html=1;rounded=1;labelBackgroundColor=none;strokeColor=#788AA3;fontColor=#46495D;" parent="jsvnlrjWWTkFHVT1R_TK-71" vertex="1">
          <mxGeometry width="30" height="30" as="geometry">
            <mxRectangle width="30" height="30" as="alternateBounds" />
          </mxGeometry>
        </mxCell>
        <mxCell id="jsvnlrjWWTkFHVT1R_TK-73" value="created_by:&amp;nbsp;&lt;b style=&quot;border-color: var(--border-color);&quot;&gt;bint()&lt;/b&gt;" style="shape=partialRectangle;connectable=0;fillColor=none;top=0;left=0;bottom=0;right=0;align=left;spacingLeft=6;overflow=hidden;whiteSpace=wrap;html=1;rounded=1;labelBackgroundColor=none;strokeColor=#788AA3;fontColor=#46495D;" parent="jsvnlrjWWTkFHVT1R_TK-71" vertex="1">
          <mxGeometry x="30" width="180" height="30" as="geometry">
            <mxRectangle width="180" height="30" as="alternateBounds" />
          </mxGeometry>
        </mxCell>
        <mxCell id="jsvnlrjWWTkFHVT1R_TK-77" value="" style="shape=tableRow;horizontal=0;startSize=0;swimlaneHead=0;swimlaneBody=0;fillColor=none;collapsible=0;dropTarget=0;points=[[0,0.5],[1,0.5]];portConstraint=eastwest;top=0;left=0;right=0;bottom=0;rounded=1;labelBackgroundColor=none;strokeColor=#788AA3;fontColor=#46495D;" parent="yR3BL-ynLd47crQW9BLM-6" vertex="1">
          <mxGeometry y="150" width="210" height="30" as="geometry" />
        </mxCell>
        <mxCell id="jsvnlrjWWTkFHVT1R_TK-78" value="" style="shape=partialRectangle;connectable=0;fillColor=none;top=0;left=0;bottom=0;right=0;editable=1;overflow=hidden;whiteSpace=wrap;html=1;rounded=1;labelBackgroundColor=none;strokeColor=#788AA3;fontColor=#46495D;" parent="jsvnlrjWWTkFHVT1R_TK-77" vertex="1">
          <mxGeometry width="30" height="30" as="geometry">
            <mxRectangle width="30" height="30" as="alternateBounds" />
          </mxGeometry>
        </mxCell>
        <mxCell id="jsvnlrjWWTkFHVT1R_TK-79" value="updated_by:&amp;nbsp;&lt;b style=&quot;border-color: var(--border-color);&quot;&gt;bint()&lt;/b&gt;" style="shape=partialRectangle;connectable=0;fillColor=none;top=0;left=0;bottom=0;right=0;align=left;spacingLeft=6;overflow=hidden;whiteSpace=wrap;html=1;rounded=1;labelBackgroundColor=none;strokeColor=#788AA3;fontColor=#46495D;" parent="jsvnlrjWWTkFHVT1R_TK-77" vertex="1">
          <mxGeometry x="30" width="180" height="30" as="geometry">
            <mxRectangle width="180" height="30" as="alternateBounds" />
          </mxGeometry>
        </mxCell>
        <mxCell id="jsvnlrjWWTkFHVT1R_TK-80" value="" style="shape=tableRow;horizontal=0;startSize=0;swimlaneHead=0;swimlaneBody=0;fillColor=none;collapsible=0;dropTarget=0;points=[[0,0.5],[1,0.5]];portConstraint=eastwest;top=0;left=0;right=0;bottom=0;rounded=1;labelBackgroundColor=none;strokeColor=#788AA3;fontColor=#46495D;" parent="yR3BL-ynLd47crQW9BLM-6" vertex="1">
          <mxGeometry y="180" width="210" height="30" as="geometry" />
        </mxCell>
        <mxCell id="jsvnlrjWWTkFHVT1R_TK-81" value="" style="shape=partialRectangle;connectable=0;fillColor=none;top=0;left=0;bottom=0;right=0;editable=1;overflow=hidden;whiteSpace=wrap;html=1;rounded=1;labelBackgroundColor=none;strokeColor=#788AA3;fontColor=#46495D;" parent="jsvnlrjWWTkFHVT1R_TK-80" vertex="1">
          <mxGeometry width="30" height="30" as="geometry">
            <mxRectangle width="30" height="30" as="alternateBounds" />
          </mxGeometry>
        </mxCell>
        <mxCell id="jsvnlrjWWTkFHVT1R_TK-82" value="created_at:&amp;nbsp;&lt;b style=&quot;border-color: var(--border-color);&quot;&gt;timestamp()&lt;/b&gt;" style="shape=partialRectangle;connectable=0;fillColor=none;top=0;left=0;bottom=0;right=0;align=left;spacingLeft=6;overflow=hidden;whiteSpace=wrap;html=1;rounded=1;labelBackgroundColor=none;strokeColor=#788AA3;fontColor=#46495D;" parent="jsvnlrjWWTkFHVT1R_TK-80" vertex="1">
          <mxGeometry x="30" width="180" height="30" as="geometry">
            <mxRectangle width="180" height="30" as="alternateBounds" />
          </mxGeometry>
        </mxCell>
        <mxCell id="jsvnlrjWWTkFHVT1R_TK-83" value="" style="shape=tableRow;horizontal=0;startSize=0;swimlaneHead=0;swimlaneBody=0;fillColor=none;collapsible=0;dropTarget=0;points=[[0,0.5],[1,0.5]];portConstraint=eastwest;top=0;left=0;right=0;bottom=0;rounded=1;labelBackgroundColor=none;strokeColor=#788AA3;fontColor=#46495D;" parent="yR3BL-ynLd47crQW9BLM-6" vertex="1">
          <mxGeometry y="210" width="210" height="30" as="geometry" />
        </mxCell>
        <mxCell id="jsvnlrjWWTkFHVT1R_TK-84" value="" style="shape=partialRectangle;connectable=0;fillColor=none;top=0;left=0;bottom=0;right=0;editable=1;overflow=hidden;whiteSpace=wrap;html=1;rounded=1;labelBackgroundColor=none;strokeColor=#788AA3;fontColor=#46495D;" parent="jsvnlrjWWTkFHVT1R_TK-83" vertex="1">
          <mxGeometry width="30" height="30" as="geometry">
            <mxRectangle width="30" height="30" as="alternateBounds" />
          </mxGeometry>
        </mxCell>
        <mxCell id="jsvnlrjWWTkFHVT1R_TK-85" value="updated_at:&amp;nbsp;&lt;b style=&quot;border-color: var(--border-color);&quot;&gt;timestamp()&lt;/b&gt;" style="shape=partialRectangle;connectable=0;fillColor=none;top=0;left=0;bottom=0;right=0;align=left;spacingLeft=6;overflow=hidden;whiteSpace=wrap;html=1;rounded=1;labelBackgroundColor=none;strokeColor=#788AA3;fontColor=#46495D;" parent="jsvnlrjWWTkFHVT1R_TK-83" vertex="1">
          <mxGeometry x="30" width="180" height="30" as="geometry">
            <mxRectangle width="180" height="30" as="alternateBounds" />
          </mxGeometry>
        </mxCell>
        <mxCell id="jsvnlrjWWTkFHVT1R_TK-89" value="" style="shape=tableRow;horizontal=0;startSize=0;swimlaneHead=0;swimlaneBody=0;fillColor=none;collapsible=0;dropTarget=0;points=[[0,0.5],[1,0.5]];portConstraint=eastwest;top=0;left=0;right=0;bottom=0;rounded=1;labelBackgroundColor=none;strokeColor=#788AA3;fontColor=#46495D;" parent="yR3BL-ynLd47crQW9BLM-6" vertex="1">
          <mxGeometry y="240" width="210" height="30" as="geometry" />
        </mxCell>
        <mxCell id="jsvnlrjWWTkFHVT1R_TK-90" value="" style="shape=partialRectangle;connectable=0;fillColor=none;top=0;left=0;bottom=0;right=0;editable=1;overflow=hidden;whiteSpace=wrap;html=1;rounded=1;labelBackgroundColor=none;strokeColor=#788AA3;fontColor=#46495D;" parent="jsvnlrjWWTkFHVT1R_TK-89" vertex="1">
          <mxGeometry width="30" height="30" as="geometry">
            <mxRectangle width="30" height="30" as="alternateBounds" />
          </mxGeometry>
        </mxCell>
        <mxCell id="jsvnlrjWWTkFHVT1R_TK-91" value="deleted_at:&amp;nbsp;&lt;b style=&quot;border-color: var(--border-color);&quot;&gt;timestamp()&lt;/b&gt;" style="shape=partialRectangle;connectable=0;fillColor=none;top=0;left=0;bottom=0;right=0;align=left;spacingLeft=6;overflow=hidden;whiteSpace=wrap;html=1;rounded=1;labelBackgroundColor=none;strokeColor=#788AA3;fontColor=#46495D;" parent="jsvnlrjWWTkFHVT1R_TK-89" vertex="1">
          <mxGeometry x="30" width="180" height="30" as="geometry">
            <mxRectangle width="180" height="30" as="alternateBounds" />
          </mxGeometry>
        </mxCell>
        <mxCell id="yR3BL-ynLd47crQW9BLM-33" value="" style="edgeStyle=entityRelationEdgeStyle;fontSize=12;html=1;endArrow=ERmany;rounded=1;entryX=1;entryY=0.5;entryDx=0;entryDy=0;exitX=0;exitY=0.5;exitDx=0;exitDy=0;labelBackgroundColor=none;fontColor=default;strokeColor=#788AA3;" parent="1" source="yR3BL-ynLd47crQW9BLM-7" target="VUji3Fqrfajs4CVE4JuU-53" edge="1">
          <mxGeometry width="100" height="100" relative="1" as="geometry">
            <mxPoint x="1200" y="887" as="sourcePoint" />
            <mxPoint x="1300" y="787" as="targetPoint" />
          </mxGeometry>
        </mxCell>
        <mxCell id="yR3BL-ynLd47crQW9BLM-34" value="" style="edgeStyle=entityRelationEdgeStyle;fontSize=12;html=1;endArrow=ERmany;rounded=1;entryX=0;entryY=0.5;entryDx=0;entryDy=0;exitX=1;exitY=0.5;exitDx=0;exitDy=0;labelBackgroundColor=none;fontColor=default;strokeColor=#788AA3;" parent="1" source="VUji3Fqrfajs4CVE4JuU-31" target="yR3BL-ynLd47crQW9BLM-13" edge="1">
          <mxGeometry width="100" height="100" relative="1" as="geometry">
            <mxPoint x="1020" y="622" as="sourcePoint" />
            <mxPoint x="920" y="652" as="targetPoint" />
          </mxGeometry>
        </mxCell>
        <mxCell id="yR3BL-ynLd47crQW9BLM-35" value="" style="edgeStyle=entityRelationEdgeStyle;fontSize=12;html=1;endArrow=ERmany;rounded=1;entryX=0;entryY=0.5;entryDx=0;entryDy=0;exitX=1;exitY=0.5;exitDx=0;exitDy=0;labelBackgroundColor=none;fontColor=default;strokeColor=#788AA3;" parent="1" source="VUji3Fqrfajs4CVE4JuU-31" target="VUji3Fqrfajs4CVE4JuU-69" edge="1">
          <mxGeometry width="100" height="100" relative="1" as="geometry">
            <mxPoint x="830" y="612" as="sourcePoint" />
            <mxPoint x="920" y="792" as="targetPoint" />
            <Array as="points">
              <mxPoint x="1100" y="597" />
              <mxPoint x="1080" y="597" />
            </Array>
          </mxGeometry>
        </mxCell>
        <mxCell id="jsvnlrjWWTkFHVT1R_TK-109" value="" style="edgeStyle=orthogonalEdgeStyle;fontSize=12;html=1;endArrow=ERoneToMany;rounded=1;exitX=1;exitY=0.5;exitDx=0;exitDy=0;entryX=1;entryY=0.5;entryDx=0;entryDy=0;labelBackgroundColor=none;fontColor=default;strokeColor=#788AA3;" parent="1" source="VUji3Fqrfajs4CVE4JuU-2" target="VUji3Fqrfajs4CVE4JuU-69" edge="1">
          <mxGeometry width="100" height="100" relative="1" as="geometry">
            <mxPoint x="1420" y="647" as="sourcePoint" />
            <mxPoint x="1520" y="547" as="targetPoint" />
            <Array as="points">
              <mxPoint x="1300" y="82" />
              <mxPoint x="1300" y="727" />
            </Array>
          </mxGeometry>
        </mxCell>
        <mxCell id="jsvnlrjWWTkFHVT1R_TK-174" value="" style="edgeStyle=elbowEdgeStyle;fontSize=12;html=1;endArrow=ERoneToMany;rounded=1;entryX=1;entryY=0.5;entryDx=0;entryDy=0;exitX=0;exitY=0.5;exitDx=0;exitDy=0;labelBackgroundColor=none;fontColor=default;strokeColor=#788AA3;" parent="1" source="VUji3Fqrfajs4CVE4JuU-2" target="VUji3Fqrfajs4CVE4JuU-95" edge="1">
          <mxGeometry width="100" height="100" relative="1" as="geometry">
            <mxPoint x="580" y="147" as="sourcePoint" />
            <mxPoint x="460" y="47" as="targetPoint" />
            <Array as="points">
              <mxPoint x="550" y="137" />
            </Array>
          </mxGeometry>
        </mxCell>
        <mxCell id="jsvnlrjWWTkFHVT1R_TK-175" value="" style="edgeStyle=elbowEdgeStyle;fontSize=12;html=1;endArrow=ERoneToMany;rounded=1;entryX=1;entryY=0.5;entryDx=0;entryDy=0;exitX=0;exitY=0.5;exitDx=0;exitDy=0;labelBackgroundColor=none;fontColor=default;strokeColor=#788AA3;" parent="1" source="VUji3Fqrfajs4CVE4JuU-31" target="jsvnlrjWWTkFHVT1R_TK-137" edge="1">
          <mxGeometry width="100" height="100" relative="1" as="geometry">
            <mxPoint x="450" y="657" as="sourcePoint" />
            <mxPoint x="550" y="557" as="targetPoint" />
          </mxGeometry>
        </mxCell>
      </root>
    </mxGraphModel>
  </diagram>
</mxfile>
